<svg xmlns="http://www.w3.org/2000/svg" xmlns:xlink="http://www.w3.org/1999/xlink" viewBox="0 0 489.6 633.6"><defs><style>.cls-1,.cls-43,.cls-46{fill:none;}.cls-2{isolation:isolate;}.cls-3{fill:#25c2a0;}.cls-4{fill:#6df2cf;}.cls-5{fill:#2ce8c0;}.cls-6{fill:#187d67;}.cls-7{fill:#e77101;}.cls-8{fill:#ffb642;}.cls-9{fill:#8df159;}.cls-10{fill:#2f6140;}.cls-11{fill:#0f4f42;}.cls-12{fill:#ffe382;}.cls-13,.cls-41{fill:#fff;}.cls-14{fill:#21ab8d;}.cls-15{fill:#fff3d6;}.cls-16{fill:#529132;}.cls-17{fill:#43ddb8;}.cls-18{clip-path:url(#clip-path);}.cls-19{fill:#fdddc9;}.cls-20{fill:#33160c;}.cls-21{fill:#59351c;}.cls-22{fill:#b76f3e;}.cls-23,.cls-31{fill:#280d0d;}.cls-24{fill:#2b605a;}.cls-25{fill:#397771;}.cls-26,.cls-37{fill:#ad2b2b;}.cls-26{opacity:0.32;}.cls-26,.cls-28,.cls-30,.cls-31,.cls-36,.cls-37,.cls-44{mix-blend-mode:multiply;}.cls-27{fill:#7a4e31;}.cls-28{opacity:0.48;}.cls-29{fill:#302222;}.cls-30{fill:#ca3d3d;opacity:0.42;}.cls-31{opacity:0.53;}.cls-32{opacity:0.2;}.cls-33{fill:#ffffb1;}.cls-34{fill:#ff5a5a;opacity:0.47;}.cls-34,.cls-35{mix-blend-mode:overlay;}.cls-35{opacity:0.17;}.cls-36{fill:#aa3030;opacity:0.7;}.cls-37{opacity:0.29;}.cls-38{fill:#3f2411;}.cls-39{fill:#231409;}.cls-40{fill:#231105;}.cls-41{opacity:0.6;}.cls-42{fill:#0a4235;}.cls-43{stroke:#231409;stroke-width:0.3px;}.cls-43,.cls-46{stroke-miterlimit:10;}.cls-45{clip-path:url(#clip-path-2);}.cls-46{stroke:#000;}</style><clipPath id="clip-path"><path class="cls-1" d="M263.76,160.35l-10.19,1.19,7.82,10L242.25,174l20.8,14.57-19.17,6.8a25.86,25.86,0,0,1,9.34,10.54l3.09,6.79c3.07,4.51-1.88,1.87-.4,4v0a34.09,34.09,0,0,1-.93,9.13v0a2.07,2.07,0,0,1,0,.31c-.06.39-.19,1.06-.4,2,0,.2-.08.43-.13.68s-.16.71-.24,1.11-.13.56-.2.85c-.33,1.52-.73,3.31-1.18,5.3-.08.37-.17.73-.25,1.11,0,.12,0,.24-.07.35-.1.39-.18.79-.28,1.19-.62,2.77-1.31,5.79-2,8.86-.06.28-.12.55-.19.83-.12.56-.26,1.13-.39,1.69s-.26,1.12-.39,1.69c-.58,2.52-1.15,5-1.71,7.39-.06.26-.12.53-.18.78-.49,2.08-1,4.06-1.36,5.83-.1.45-.21.88-.3,1.3,0,.22-.1.42-.15.63l-.42,1.84-.6,2.57-.13.57-.35,1.61h12.32l2.22-.06,1.41-21.86L259.16,271s-5.63,53.66-12.32,63.64c-.39.44-1.55,2.61-2,3.05-5.53,5.84-12,13.07-20.92,18.78-20.91,17.88-48.71,36.32-51.38,38.08-4.34,2.85-43.36,11.37-50.59,8.87-4.48-1.54-24-9.66-40-15.15A173.63,173.63,0,0,1,64.23,381L52.56,340.26l1.09-3.3c-.78-2.3-5.59-4.44-6.21-6.58-3.08-10.79-9-16.17-9.15-17.5,0-.13,0-.19,0-.19s1.65-15,3.33-29.56c1.4-12,2.82-23.64,3.33-26.21,1.15-5.7,18.21-31.49,18.21-31.49l3.58-5.07c-.33-2.82,1.9-28.44,1.9-28.44A92.76,92.76,0,0,1,67,169.49h0v-.19c0-.57.05-1.14.09-1.72a0,0,0,0,1,0-.06c.14-2.09.35-4.23.64-6.44a73.58,73.58,0,0,1,7-23.13l-.36-.46c3.46-7.57,8.56-15,16.09-20.4,0,0,8,3,9.86-9.86.84-.25,11.21,4.11,17.15-5.42L119,97.4l3.06,3.79c4.14,3.42,12.33,8.53,23,7,6.42-.56,21.13-9.41,23-12.94,0,0,3,13,14.07,9.83a16.92,16.92,0,0,0,4-1.71A16.6,16.6,0,0,0,192,97.9s4.38,9,12.69,9a13.55,13.55,0,0,0,7.17-1.67s1.49,11.83,13.89,13.86c4.58.87,13-2.32,13-2.32s-2.33,11.49,6.72,14c1.46.36,6.64,0,6.64,0a22.11,22.11,0,0,0,4.21,6.39,15.72,15.72,0,0,0,5.74,3.92S267.79,152.76,263.76,160.35Z"/></clipPath><clipPath id="clip-path-2"><path class="cls-1" d="M328.29,124.09l-.94,1-7.35,8.1s-.22-.18-.58-.53a.57.57,0,0,1-.11-.11l-.22-.22s0,0,0-.05a.1.1,0,0,1-.06-.07l-.1-.11a5.4,5.4,0,0,1-.56-.61,7.13,7.13,0,0,1-.58-.75,23.62,23.62,0,0,1-1.53-2.28c-.12-.19-.23-.4-.34-.61a23.63,23.63,0,0,1-1.28-2.75c-.1-.26-.2-.51-.29-.78s-.19-.54-.27-.81-.2-.64-.29-1-.23-.91-.32-1.39-.19-.93-.27-1.43c0-.29-.08-.58-.1-.88a30.93,30.93,0,0,1,1-11.82l-1.65,1c0-.62,0-1,0-1L308.37,110l-18-6.61c12.4-27.58-13.85-30.6-14.05-31.26-3.55-17.77-22.81-22.46-23.12-21.87,10.35,15.17,2.42,19.69,2.42,19.69,1.63-7.84-5.09-13.82-10-16.38a16.11,16.11,0,0,0-16.81,4.89s-5.56-7.73-9.82-10.12c-13.13-3.35-17.92,9.47-17.92,9.47-10.41-19-28.71-12.83-28.71-12.83a117.41,117.41,0,0,0-10.24-6c-10.41-2.42-12.81,7.16-12.81,7.16s-7.63-9.94-16.65-8.87c-15.43,2.49-16,14.13-16,14.13-8-3.32-17.83-1.25-25.14,2.3-20.79,15.36-9.11,33.49-9.11,33.49-22,10.46-8,32.14-8,32.14-15.07,5.74-5.91,16.82-5.91,16.82-14.91,12.44-1.83,32.93-1.56,33.33v-.19c0-.29,0-.87.08-1.72a.06.06,0,0,1,0-.06c.09-1.47.26-3.7.65-6.44a84.63,84.63,0,0,1,6.58-23.59c3.46-7.57,8.57-15,16.09-20.4,0,0,8,3,9.87-9.86.84-.25,11.21,4.11,17.14-5.42a21.46,21.46,0,0,0,1.69-3.46,25.41,25.41,0,0,0,3,2.85c4.14,3.42,12.33,8.53,23,7,6.42-.56,21.12-9.41,23-12.94,0,0,3,13,14.07,9.83A17.35,17.35,0,0,0,192,97.9s4.38,9,12.69,9a13.55,13.55,0,0,0,7.17-1.67s1.49,11.83,13.89,13.87c4.57.86,13-2.33,13-2.33s-2.33,11.49,6.72,14c1.46.36,6.64,0,6.64,0a22.11,22.11,0,0,0,4.21,6.39,15.64,15.64,0,0,0,5.74,3.92s5.75,11.65,1.72,19.24l-10.19,1.19,7.81,10L242.25,174,263,188.6l-19.17,6.81a25.84,25.84,0,0,1,9.35,10.53,26.36,26.36,0,0,1,2.69,10.78v0a34.51,34.51,0,0,1-.93,9.13v0s0,.15,0,.31c-.06.39-.19,1.06-.4,2,0,.2-.09.43-.13.68l-.25,1.11c-.06.28-.12.56-.19.85-.33,1.52-.73,3.31-1.18,5.3-.08.37-.17.73-.25,1.11,0,.12,0,.24-.08.35l-.27,1.19c-.62,2.77-1.32,5.79-2,8.86-.06.28-.12.55-.2.83-.12.56-.25,1.13-.38,1.69s-.26,1.12-.39,1.69c-.58,2.52-1.15,5-1.71,7.39-.06.26-.12.53-.18.78-.49,2.08-1,4.06-1.36,5.83-.1.45-.21.88-.31,1.3,0,.22-.09.42-.14.63-.15.65-.29,1.27-.43,1.84l-.59,2.57-.14.57-.35,1.61c-4.22,13.46-8.82,24-11.44,25.08-20.75,20-59.52,29.53-65.3,30.75,1.33-7.17,2.49-13.45,2.35-14.07C167.37,313.06,130,291,127.08,291s-17,1.4-17,1.4l-6.55-6.7c-.72-.24-42.74,9.73-42.81,10.92s-.16,12.09-.12,22.05a24.67,24.67,0,0,1-2.88-1.77c-15.25-10.79-16.92-36.84-16.92-36.84L38,309.2s20.91,74,23,76.14c1.75,1.8,41.24,15.37,57.07,21.3,1.38.08,2.76.19,4.14.31h.32a72.08,72.08,0,0,1,8,.27l6.64-2-.81,2.36a34.79,34.79,0,0,0,8-.56l.52-.48.34.31c2.93-.69,5.74-1.62,8.55-2.52l.06-.2.09.16c2.51-.8,5-1.57,7.61-2.12,6.84-2.51,24.17-10.15,48.67-29.89,29.28-22.39,40.23-41.4,40.23-41.4l5.43-31.68,3.22-24.82h-2.83l2.22-.06,1.41-21.86,11.31-8a64.61,64.61,0,0,1,4.83-4.6l.82-.7a63.14,63.14,0,0,1,6.94-5.1l.64-.38.45-.27c.21-.12.42-.26.63-.37a35.25,35.25,0,0,1,3.53-1.77l.89-.37c.34-.15.69-.28,1-.4.71-.26,1.41-.48,2.13-.67q.47-.14,1-.24l.15,0,.91-.17a.72.72,0,0,1,.22,0l1-.13h0a23.24,23.24,0,0,1,6.18-.42,23.85,23.85,0,0,0,.86-2.53l.15-.52a1.8,1.8,0,0,1,.06-.22c.06-.25.12-.52.19-.8a26.72,26.72,0,0,0,.5-3.17c0-.32.06-.65.07-1,.27-5.66-1.59-12.68-10.73-16.9,0,0,.88,0,2.29-.13l.35,0c1.22-.11,2.8-.29,4.54-.59l.55-.11c.65-.11,1.29-.25,2-.4.87-.21,1.76-.44,2.64-.7h0l1.17-.37.1,0,1.33-.49c.29-.1.58-.23.87-.35a.27.27,0,0,0,.11,0c.32-.13.64-.28.95-.42.65-.32,1.27-.66,1.88-1l.81-.52c.38-.26.74-.52,1.08-.8l.56-.46c.25-.23.5-.45.73-.7a10.88,10.88,0,0,0,2.54-3.91,3,3,0,0,0,.13-.36c.07-.18.12-.36.18-.55a11.58,11.58,0,0,0,.37-2.49c.32-5.47-5.12-10.24-5.12-10.24S328,169,323.15,160.05c-.68-1.29-1.31-2.38-1.88-3.33-.13-.24-.28-.46-.41-.68s-.26-.42-.39-.63-.25-.38-.36-.57a24.25,24.25,0,0,0-2-2.7,1.61,1.61,0,0,0-.22-.23,1.23,1.23,0,0,0-.19-.2l.14-.76C337.22,140.36,328.29,124.09,328.29,124.09ZM126.58,353.87l-3.35-24.45c-16.13,2.76-34.75-6.3-34.75-6.3l-9.56,22.11c-7.11-3.81-10.4-7.39-10.4-7.39l3-30.71,4.75-1.45s24.54-5.29,25.85-5.3,5.54,5.46,5.54,5.46c1.28-1.45,6.5-3,8.25-3.26S127,308,132.38,311.19s19.91,13.46,19.91,13.46l3.37,1.48,1,22.47A153.17,153.17,0,0,1,126.58,353.87Z"/></clipPath></defs><g class="cls-2"><g id="Layer_35" data-name="Layer 35"><path class="cls-3" d="M187,439.35c-9.67,14.38-27.16,19.54-39.07,11.52s-8.89-24.7.78-39.08,22.34-21,34.25-13S196.68,425,187,439.35Z"/><path class="cls-4" d="M151.88,438.53c.5-18.46,23-38.53,23-38.53s-20.4-5.46-33,29.95Z"/><path class="cls-3" d="M131.61,441.59c15.75,22.66,39.37,11,39.37,11s-23.31-24.68-30.06-24.76S131.61,441.59,131.61,441.59Z"/><path class="cls-5" d="M140.49,436.62l-5.62,9.06c11.76,12.9,26.38,10.23,32.81,8.17l.7-.24S147.86,456,140.49,436.62Z"/><path class="cls-6" d="M120,430.58s-15.83,7.11-16.36,21.76,15.52,10,14.12,1c0,0,.8-3.62,2.81-4.12s-.6,6.37,2.51,10.11,14.39,5.53,15.65-3-2.61-13.74,4.91-18.45S141.47,420.46,120,430.58Z"/><path class="cls-5" d="M119.65,432.69c9.08-4.8,10.08,2.27,8.37,6.52s7,3.55,6.44,1.22-.65-9.34,3.75-10.51C138.21,429.92,127.15,425.45,119.65,432.69Z"/><path class="cls-5" d="M161.27,441.7l-14.36-11.08a18.79,18.79,0,0,0-9.84-3.85,33.68,33.68,0,0,0-19.53,4.85c-6.14,3.77-12.49,9.94-13.66,17.26s.89,9.66.89,9.66-1.48-8.07,2.57-13.6,12.12-12.91,22.29-14.62,14.11.4,17.8,4.08S156.15,444.13,161.27,441.7Z"/><path class="cls-5" d="M115.21,449.67s.14,3.36-2,1.7-8.43-1.78-8.74,6.46h0c3.21,7.62,14.48,3.14,13.29-4.48,0,0,.8-3.62,2.81-4.12.43-.11.64.15.75.62v0C123.93,442.8,119.43,440.29,115.21,449.67Z"/><path class="cls-7" d="M106.47,455c-2.09,1.73-2.66,8.33,5,13.64,0,0,5.58-9,3.17-12.32S108.47,453,106.47,455Z"/><path class="cls-8" d="M108.78,455c-5.06,2.6,0,9.73,2.31,11.58Z"/><path class="cls-7" d="M126.88,454.49c-2.33,1.39-3.93,7.81,2.76,14.26,0,0,6.93-8,5.07-11.67S129.17,452.84,126.88,454.49Z"/><path class="cls-8" d="M129.17,454.8c-5.41,1.78-1.53,9.61.46,11.81Z"/><path class="cls-5" d="M124.86,451.32c5.69-4.86,11.86.35,11.86.35a6.32,6.32,0,0,0-5.11-4.46A6.12,6.12,0,0,0,124.86,451.32Z"/><path class="cls-9" d="M177.22,416.09c-2.48,4-6.57,5.85-9.13,4.24s-2.61-6.12-.13-10.07,6.58-5.85,9.14-4.24S179.71,412.14,177.22,416.09Z"/><path class="cls-9" d="M164.6,428.72c-1.5,2.38-4,3.53-5.51,2.56s-1.57-3.69-.07-6.07,4-3.53,5.5-2.56S166.1,426.34,164.6,428.72Z"/><path class="cls-5" d="M105.57,449.17c2.91-3.47,8-.61,8-.61S109.48,442.59,105.57,449.17Z"/><path class="cls-5" d="M127.54,446.1s2.46-2,6.58,0C134.12,446.1,131,441.53,127.54,446.1Z"/><path class="cls-10" d="M147.1,430.74l14.17,11S159.18,432.14,147.1,430.74Z"/><path class="cls-10" d="M158.77,438.53a19.8,19.8,0,0,1,5.87,0s-3-3-6.77-2.06Z"/><path class="cls-3" d="M320.26,565.67s-13.9-2.25-37.48,1a93.78,93.78,0,0,0-39.53,15.15c-17.19-.15-21.22,15-15.13,19.37,2.8,2,7.33,2.4,11.41,2.24-1.19,5.92,1.47,12.58,9.67,14.23a21,21,0,0,0,19.37-6.1c11.71,11.3,24.6,3.45,24.6,3.45s24.69-15.52,34.47-24.7C334.47,583.93,336.2,581.23,320.26,565.67Z"/><path class="cls-11" d="M270,597.79c3.3-5.78,18.87-9.51,27.39,3.51,0,0-1.7-11.71-13-13.07C272.21,586.79,270,597.79,270,597.79Z"/><path class="cls-11" d="M255.37,589.59,283,577.8s-13.81-1.66-27-3.14a78.19,78.19,0,0,0-12.71,7.19c-17.19-.15-21.22,15-15.13,19.37,2.49,1.79,6.34,2.29,10,2.27C236.6,592.42,249.05,587.91,255.37,589.59Z"/><path class="cls-12" d="M242.41,600.35c-6.53,4.71-11.14,13.31-13.3,21,0,0,30.74,1.74,33.26-10.08a10.14,10.14,0,0,0-1-7C257.75,597.4,248.7,595.83,242.41,600.35Z"/><path class="cls-8" d="M262.37,611.26a10.14,10.14,0,0,0-1-7,11.86,11.86,0,0,0-2.23-3c3.13,13.68-23.46,15.85-26.59,11.25a48.71,48.71,0,0,0-3.44,8.79S259.85,623.08,262.37,611.26Z"/><path class="cls-13" d="M235.69,610.06c6.62-12,17.61-11.77,20.39-8.76C258.12,603.49,235.69,610.06,235.69,610.06Z"/><path class="cls-12" d="M268.83,603.51c-5.71,5.68-8.89,14.9-9.8,22.83,0,0,30.62-3.15,31.24-15.22a10.15,10.15,0,0,0-2.11-6.76C283.51,598.17,274.32,598.05,268.83,603.51Z"/><path class="cls-8" d="M290.27,611.12a10.15,10.15,0,0,0-2.11-6.76,12,12,0,0,0-2.66-2.57c5.26,13-20.65,19.38-24.47,15.33a48,48,0,0,0-2,9.22S289.65,623.19,290.27,611.12Z"/><path class="cls-13" d="M263.73,614.16c4.63-12.94,15.52-14.41,18.75-11.88C284.83,604.12,263.73,614.16,263.73,614.16Z"/><path class="cls-12" d="M223.94,589.87c-5.43,2.31-10.12,7.71-12.9,12.86,0,0,21.7,6.21,25.41-1.83a7.41,7.41,0,0,0,.41-5.17C235.39,590.24,229.17,587.65,223.94,589.87Z"/><path class="cls-8" d="M236.45,600.9a7.41,7.41,0,0,0,.41-5.17,8.58,8.58,0,0,0-1.11-2.48c0,10.29-19.34,7.55-20.83,3.75a35.27,35.27,0,0,0-3.88,5.73S232.74,608.94,236.45,600.9Z"/><path class="cls-13" d="M217.57,595.72c6.68-7.54,14.49-5.56,16-3C234.66,594.65,217.57,595.72,217.57,595.72Z"/><path class="cls-3" d="M221.68,547.71s-13.9-2.24-37.49,1a93.78,93.78,0,0,0-39.53,15.15c-17.19-.16-21.22,15-15.13,19.36,2.81,2,7.34,2.41,11.41,2.24-1.19,5.92,1.48,12.58,9.67,14.24A21,21,0,0,0,170,593.63c11.71,11.3,24.6,3.45,24.6,3.45s24.69-15.52,34.48-24.7C235.89,566,237.61,563.27,221.68,547.71Z"/><path class="cls-5" d="M173.13,580.54s10.27-6.91,21.33,4a10.16,10.16,0,0,0-7.46-8.19C177.28,573.76,173.13,580.54,173.13,580.54Z"/><path class="cls-5" d="M142.29,578.65s8.24-7.95,19.3,3a8.67,8.67,0,0,0-5.43-7.13C146.94,570.45,142.29,578.65,142.29,578.65Z"/><path class="cls-11" d="M171.37,579.83l-8.47-3.09s2.11,3.16-1.4,10.32c-2.05,4.18-10,8-16.31,10.36a13.53,13.53,0,0,0,5.42,2.32,20.89,20.89,0,0,0,17.75-4.57C166.36,588.93,171.37,579.83,171.37,579.83Z"/><path class="cls-11" d="M231.76,559c-6.09,8.32-17.58,22.78-22.07,20.14-6.24-3.67-9.75-1.82-9.75-1.82,3.52,4.83,2,8.78,2,8.78-8.07-4.57-9.13,9.65-19.22,5,0,0-1.38,5.15-4.35,7.76a21.14,21.14,0,0,0,16.19-1.73s24.69-15.52,34.48-24.7C233.77,568,236.05,565.3,231.76,559Z"/><path class="cls-11" d="M171.37,579.83c3.29-5.77,18.86-9.51,27.39,3.51,0,0-1.71-11.71-13-13.06C173.62,568.83,171.37,579.83,171.37,579.83Z"/><path class="cls-11" d="M156.78,571.63l27.63-11.79s-13.81-1.66-27-3.13a78.19,78.19,0,0,0-12.71,7.19c-17.19-.16-21.22,15-15.13,19.36,2.49,1.79,6.34,2.3,10,2.27C138,574.46,150.47,570,156.78,571.63Z"/><path class="cls-12" d="M143.83,582.4c-6.54,4.7-11.15,13.3-13.31,21,0,0,30.74,1.73,33.26-10.09a10.14,10.14,0,0,0-1-7C159.16,579.45,150.12,577.87,143.83,582.4Z"/><path class="cls-8" d="M163.78,593.3a10.14,10.14,0,0,0-1-7,11.63,11.63,0,0,0-2.23-3C163.69,597,137.09,599.2,134,594.6a48.42,48.42,0,0,0-3.44,8.79S161.26,605.12,163.78,593.3Z"/><path class="cls-13" d="M137.1,592.1c6.63-12,17.61-11.76,20.4-8.76C159.53,585.53,137.1,592.1,137.1,592.1Z"/><path class="cls-12" d="M170.24,585.56c-5.7,5.67-8.89,14.9-9.8,22.83,0,0,30.62-3.16,31.24-15.23a10.06,10.06,0,0,0-2.11-6.75C184.92,580.21,175.74,580.09,170.24,585.56Z"/><path class="cls-8" d="M191.68,593.16a10.06,10.06,0,0,0-2.11-6.75,11.55,11.55,0,0,0-2.66-2.57c5.26,13-20.65,19.37-24.47,15.32a47.92,47.92,0,0,0-2,9.23S191.06,605.23,191.68,593.16Z"/><path class="cls-13" d="M165.14,596.2c4.63-12.94,15.52-14.4,18.75-11.88C186.24,586.16,165.14,596.2,165.14,596.2Z"/><path class="cls-12" d="M125.35,571.91c-5.43,2.31-10.11,7.71-12.9,12.86,0,0,21.7,6.22,25.41-1.83a7.41,7.41,0,0,0,.42-5.17C136.8,572.28,130.59,569.69,125.35,571.91Z"/><path class="cls-8" d="M137.86,582.94a7.41,7.41,0,0,0,.42-5.17,9,9,0,0,0-1.11-2.48c0,10.3-19.35,7.55-20.84,3.75a35.92,35.92,0,0,0-3.88,5.73S134.15,591,137.86,582.94Z"/><path class="cls-13" d="M119,577.76c6.68-7.53,14.49-5.56,16-3C136.08,576.69,119,577.76,119,577.76Z"/><path class="cls-8" d="M262.74,405.64c37.21-45.25,49.25-32.35,39.62,14Z"/><path class="cls-12" d="M305.15,388.11c-2-14.19-11.47-14.83-29.22,2.83,2.17,0,8.64-3,15.61-6C297.49,382.37,302,384.77,305.15,388.11Z"/><path class="cls-7" d="M302.43,419.32a154,154,0,0,0,2.87-19.18c-1.29-6.31-5-14.41-15.85-8.15-9.16,5.29-17.59,8.36-19.82,5.61-2.2,2.44-4.49,5.11-6.89,8l39.6,14Z"/><path class="cls-8" d="M299.55,420.32c55.05-20.06,58.86-2.83,27,32.22Z"/><path class="cls-12" d="M346.49,418c-1.48-7.1-12.24-8.42-33.87-2-4.28,2.58-2.14,3.67,11.57,1.35C335.2,415.45,342.35,416,346.49,418Z"/><path class="cls-7" d="M326.07,452c.76-.45,1.52-.92,2.27-1.43,7.69-8.67,13.09-16.17,15.94-22.21a8.65,8.65,0,0,0-11.82-7.74c-8.58,3.31-16.55,10.54-27.16,0l-4,1.8Z"/><path class="cls-8" d="M323.11,458.85c55.05-20.07,58.86-2.83,27,32.21Z"/><path class="cls-12" d="M341.09,453.11c-1.16,1.67,1.69,2.69,10.09,1.85,11.12-1.11,16.62,1,18.95,4.86C371.31,450.59,362.26,447.56,341.09,453.11Z"/><path class="cls-7" d="M329.93,467l20.19,24.09c8.32-9.16,14.18-17.08,17.36-23.46,1.57-8.66-6.79-11.93-37.43-1Z"/><ellipse class="cls-14" cx="196.34" cy="499.65" rx="76.98" ry="62.18" transform="translate(-295.8 285.18) rotate(-45)"/><path class="cls-6" d="M132,533.39c7.9,13.16,32.84.87,32.84.87s-9.2,11.46-22.22,10.18A11.06,11.06,0,0,1,132,533.39Z"/><path class="cls-6" d="M140.48,546.62c7.11,4.21,17.84-3.49,17.84-3.49S154,549.68,147.7,550C140.48,550.42,140.48,546.62,140.48,546.62Z"/><path class="cls-6" d="M176.06,520.28c-11.25,19.88,15.06,54.48-23.1,42.16,25.08,14.14,61.41,7.11,87.34-18.82a93.32,93.32,0,0,0,16.34-21.94C226,513.55,184.32,505.7,176.06,520.28Z"/><path class="cls-3" d="M260.1,458a51.08,51.08,0,0,0-9.33-12.82c-24.28-24.28-68.33-19.59-98.4,10.47-19,19-27.82,43.52-25.68,65.15,14.2,12.22,37.35,12.82,53.5-10.22C206.39,473.26,229.56,440.59,260.1,458Z"/><path class="cls-5" d="M133,498.59c16.71-47.85,57.18-77.09,105-59.62,0,0-34.46,7.76-57.86,46.62,0,0,0-17.57-16.78-6.15,0,0-2.19-11.87-16.95,6.79C146.46,486.23,143.77,479.25,133,498.59Z"/><ellipse class="cls-5" cx="164.85" cy="495.04" rx="13.77" ry="8.06" transform="translate(-352.6 428.03) rotate(-64.2)"/><path class="cls-5" d="M144.6,503.62c-1.73,3.58-4.84,5.66-6.93,4.65s-2.39-4.74-.66-8.32,4.83-5.66,6.93-4.65S146.33,500,144.6,503.62Z"/><path class="cls-5" d="M154.4,492.89c-1.2,2.47-3.34,3.91-4.79,3.21s-1.66-3.28-.46-5.75,3.34-3.91,4.79-3.21S155.59,490.41,154.4,492.89Z"/><path class="cls-3" d="M255.79,372.57l5.58-78.4-66.82,25.65-31,82.15A161.29,161.29,0,0,0,154,441.39l0,.24-1.85,17.12c-.13,1.15-.2,2.29-.28,3.43l-.27,2.55.11-.06A92.45,92.45,0,0,0,244,561.13h102.7V515.58c0-56-23-102.91-75.22-115.32C261.69,397.93,255.14,388.72,255.79,372.57Z"/><path class="cls-6" d="M278.67,425c18.18,45.57-15.7,81.21-31.24,81.56s-18.2-16.67-18.2-16.67Z"/><path class="cls-5" d="M346.68,515.58c0-56-23-102.91-75.22-115.32-9.22-2.2-15.56-10.54-15.7-25l-3.88,4.31s-2.54,17.91,14.28,26.86,56.95,10.85,63.77,85.28c2.44,26.73,7.13,41.74,16.75,49.78Z"/><path class="cls-12" d="M226.63,355.52l-41.08-11.85-22,58.3A161.29,161.29,0,0,0,154,441.39l0,.24-1.85,17.12c-.13,1.15-.2,2.29-.28,3.43l-.27,2.55.11-.06A92.45,92.45,0,0,0,244,561.13h68.68C312.4,487,195.52,484.15,226.63,355.52Z"/><path class="cls-15" d="M162,464.18a5.62,5.62,0,0,0-5.85,7.41c16.33,47.75,51,42.5,63.41,20C230,472.7,181.89,466.08,162,464.18Z"/><path class="cls-8" d="M152.05,478.38A92.47,92.47,0,0,0,244,561.13h68.68c-.12-35.91-27.62-55.09-52.41-80C233.61,531.35,181.4,558,152.05,478.38Z"/><path class="cls-8" d="M198.26,499.81a198,198,0,0,1-43.24-6q.66,2.29,1.41,4.53a207.36,207.36,0,0,0,41.71,5.49c1.84.06,3.74.08,5.68.08a187.47,187.47,0,0,0,67.3-12.25l-3.26-3.1A184.93,184.93,0,0,1,198.26,499.81Z"/><path class="cls-8" d="M308.85,539.44c-19.4,11.28-42.9,17.9-66.17,21.66.43,0,.86,0,1.3,0h19.44c16.27-3.93,32.45-9.61,46.71-17.76C309.74,542,309.32,540.72,308.85,539.44Z"/><path class="cls-8" d="M194,478.17a157.77,157.77,0,0,1-42.43-9c0,1.46.06,2.91.13,4.36a162.77,162.77,0,0,0,42,8.66q5.88.42,11.73.42a162.64,162.64,0,0,0,48.94-7.59c-1-1.09-2-2.19-3-3.3A158.49,158.49,0,0,1,194,478.17Z"/><path class="cls-8" d="M298.86,521.13c-29.79,15.82-64.57,20.8-91,21.92-6.38.27-12.54.34-18.39.26,2,1.43,4,2.8,6.05,4.08,3.75,0,7.6-.08,11.53-.24,27.34-1.08,63.34-6.16,94.17-22.66C300.44,523.36,299.67,522.24,298.86,521.13Z"/><path class="cls-8" d="M202.56,521.45a257.74,257.74,0,0,1-36-2.25q1.53,2.34,3.19,4.57a263,263,0,0,0,31,1.85c26.49,0,57.61-4.14,86.81-17.78q-1.5-1.57-3.05-3.14C255.62,517.82,225.43,521.28,202.56,521.45Z"/><path class="cls-8" d="M168.78,388.09l-1.47,3.9a63,63,0,0,0,29.75,7,101.42,101.42,0,0,0,24.32-3.24c0-1.41,0-2.83.08-4.27C197.2,397.62,181.08,394.46,168.78,388.09Z"/><path class="cls-8" d="M162.22,405.64c-.46,1.3-.9,2.62-1.33,3.93a80.37,80.37,0,0,0,39.59,10.09,108.44,108.44,0,0,0,22.74-2.55c-.24-1.34-.46-2.7-.66-4.09C195.09,418.88,176.36,413.39,162.22,405.64Z"/><path class="cls-8" d="M153.39,446.5l-.45,4.2A130.11,130.11,0,0,0,193.29,461c3.81.34,7.63.51,11.48.51a142.2,142.2,0,0,0,35-4.5c-.79-1.16-1.55-2.34-2.3-3.53C200.32,462.62,172,454.73,153.39,446.5Z"/><path class="cls-8" d="M156.67,425c-.3,1.38-.58,2.76-.85,4.14a102.51,102.51,0,0,0,47.26,11.51,121.54,121.54,0,0,0,26.15-3c-.52-1.27-1-2.57-1.51-3.89C195.78,440.55,173,433.35,156.67,425Z"/><path class="cls-14" d="M317.39,456.06c34.57,48.3,63.87,37.21,62,6.95a29.1,29.1,0,0,1,33.7-30.47c15.29,2.45,33,9.2,50,24.73,0,0-18.72-3.24-34.06-1.07a10,10,0,0,0-7.68,14c11.59,25.51,30,90.93-86.11,90.93C191,561.13,317.39,456.06,317.39,456.06Z"/><path class="cls-6" d="M413,500.17c17.86-17,5.53-25.07,7.49-34.42h0A10,10,0,0,1,429,456.2c15.34-2.17,34.06,1.07,34.06,1.07C380.91,430.91,424.72,481.29,413,500.17Z"/><path class="cls-5" d="M379.38,463c1.32,21.2-12.67,33-33.05,21.54l2.46,17.23c41.57-3.87,39.74-14.06,39.1-39.06s23.32-38.83,75.2-5.45c-17-15.53-34.72-22.28-50-24.73A29.1,29.1,0,0,0,379.38,463Z"/><path class="cls-6" d="M391.75,454c-1.5,12.11,9.49,9.93,15.35-.61L413,442.86Z"/><path class="cls-6" d="M385.23,482.65c-1.6,10.07,22.19,13.63,14.84-16.82Z"/><path class="cls-16" d="M428.58,441.75c-8.53,6-3.52,11,21.06,6.82Z"/><path class="cls-6" d="M407.64,508.38c.36,3.07-3.75,6.09-9.2,6.74s-10.16-1.31-10.53-4.38,3.75-6.09,9.2-6.75S407.27,505.3,407.64,508.38Z"/><path class="cls-6" d="M380.87,511.58c.7,5.86-7.15,11.62-17.53,12.86s-19.36-2.5-20.06-8.35,7.14-11.62,17.52-12.86S380.17,505.73,380.87,511.58Z"/><path class="cls-6" d="M394.43,492.1c.43,3.61-4.41,7.16-10.81,7.93s-11.93-1.54-12.36-5.15,4.4-7.16,10.8-7.93S394,488.49,394.43,492.1Z"/><path class="cls-6" d="M303.92,528.89l-3,29.54c9.19,1.74,20.49,2.7,34.28,2.7,96.34,0,100.07-45,91.92-74.94C428.46,515.16,417.34,538.32,303.92,528.89Z"/><ellipse class="cls-14" cx="292.55" cy="522.2" rx="76.98" ry="62.18" transform="translate(-283.56 359.81) rotate(-45)"/><path class="cls-6" d="M228.88,553.37c20.39,21.27,46.29-5.21,46.29-5.21S264.41,567,251,567.66,228.88,553.37,228.88,553.37Z"/><path class="cls-6" d="M240.19,568.32c14.88,8.16,27.65-5.18,27.65-5.18a20.35,20.35,0,0,1-14.18,10.43C243.48,575.43,240.19,568.32,240.19,568.32Z"/><path class="cls-6" d="M309.55,541.5c-13.45,57.17-60.8,53.68-83.21,16.42l-.05.23a51.37,51.37,0,0,0,11.83,18.48c24.28,24.28,68.33,19.6,98.4-10.47,15.15-15.15,23.85-33.86,25.64-51.79C345.16,507.46,318.46,503.62,309.55,541.5Z"/><path class="cls-3" d="M356.32,480.59A51,51,0,0,0,347,467.77c-24.28-24.29-68.33-19.6-98.39,10.46-19,19-27.83,43.52-25.68,65.15,14.19,12.22,37.34,12.82,53.49-10.21C302.6,495.81,325.77,463.13,356.32,480.59Z"/><path class="cls-5" d="M229.23,521.13c16.71-47.85,57.18-77.08,105-59.62,0,0-34.47,7.76-57.87,46.62,0,0,0-17.57-16.78-6.14,0,0-2.18-11.88-16.94,6.78C242.68,508.77,240,501.79,229.23,521.13Z"/><path class="cls-5" d="M268.32,521.1c-3.31,6.84-9.25,10.82-13.25,8.89s-4.58-9.06-1.27-15.91,9.24-10.83,13.25-8.89S271.63,514.25,268.32,521.1Z"/><ellipse class="cls-5" cx="237.01" cy="524.33" rx="7.2" ry="4.22" transform="translate(-338.21 509.54) rotate(-64.2)"/><path class="cls-5" d="M250.61,515.43c-1.2,2.48-3.34,3.91-4.79,3.21s-1.65-3.27-.46-5.75,3.34-3.91,4.79-3.21S251.81,513,250.61,515.43Z"/><path class="cls-8" d="M385.23,482.65c-4.45-33,5.85-28.11,14.84-16.82C400.07,465.83,403.89,489,385.23,482.65Z"/><path class="cls-12" d="M392,458.2c-5.69-3.09-9.69,1.33-6.87,23.39,2,2.32,3.8.36,3.12-7.54C387.23,462.64,388.91,458,392,458.2Z"/><path class="cls-7" d="M394.06,475.37c1.36,7-4.46,8.28-9.06,5.4.07.62.15,1.23.23,1.88,18.66,6.38,14.84-16.82,14.84-16.82C393.65,459,391,459.38,394.06,475.37Z"/><path class="cls-8" d="M391.75,454c-6.47-32.36,17.91-22.43,21.22-11.14a14.78,14.78,0,0,0-8.12,5.41C401.09,452.94,400.33,455.22,391.75,454Z"/><path class="cls-12" d="M406.21,434.49c-7-4.54-16.5-3.87-15.44,12.29,1.39,1.43,3.85-1.34,5.05-7C397.24,433.09,402.56,433.39,406.21,434.49Z"/><path class="cls-7" d="M398.68,442.66c-.23,7.87-4.81,9.49-7.59,7.28.17,1.28.37,2.61.66,4.06,8.58,1.22,9.34-1.06,13.1-5.73a14.78,14.78,0,0,1,8.12-5.41S399.08,429,398.68,442.66Z"/><path class="cls-8" d="M428.58,441.75l21.06,6.82S444.83,423.89,428.58,441.75Z"/><path class="cls-12" d="M432.67,437.94c1.1.54,3.52.57,6.44-.05s5.44.78,7.4,2.45C443.94,436.06,439.58,432.72,432.67,437.94Z"/><path class="cls-7" d="M440.36,440.07c-4.64,2.47-9.16,1.51-8.72-1.31a33.74,33.74,0,0,0-3.06,3L449,448.36C447.76,444.48,444.92,437.66,440.36,440.07Z"/><path class="cls-11" d="M308.33,585.53s34.9-9,50.81-56.33C359.14,529.2,332.56,573.4,308.33,585.53Z"/><path class="cls-11" d="M338,563.1s41.23,1.58,67.87-16.14c0,0-24.68,12.95-63.21,10.41Z"/><path class="cls-3" d="M273.18,451.15c-9.67,14.38-27.17,19.53-39.07,11.52s-8.89-24.7.78-39.08,22.34-21,34.25-13S282.85,436.77,273.18,451.15Z"/><path class="cls-4" d="M238.05,450.33c.5-18.46,23-38.53,23-38.53s-20.4-5.46-33,29.95Z"/><path class="cls-17" d="M217.78,453.39c15.75,22.66,39.38,11,39.38,11s-23.31-24.68-30.07-24.76S217.78,453.39,217.78,453.39Z"/><path class="cls-6" d="M226.66,448.42l-5.61,9.06c11.76,12.9,26.38,10.23,32.81,8.17l.7-.24S234,467.84,226.66,448.42Z"/><path class="cls-3" d="M206.14,442.38s-15.83,7.11-16.36,21.76,15.52,10,14.12,1c0,0,.8-3.62,2.81-4.12s-.61,6.37,2.5,10.11,14.4,5.52,15.65-3-2.6-13.74,4.92-18.46S227.65,432.26,206.14,442.38Z"/><path class="cls-4" d="M205.83,444.49c9.08-4.8,10.08,2.27,8.37,6.52s7,3.55,6.44,1.22-.66-9.34,3.75-10.51C224.39,441.72,213.33,437.25,205.83,444.49Z"/><path class="cls-4" d="M247.44,453.5l-14.35-11.09a18.83,18.83,0,0,0-9.84-3.84,33.64,33.64,0,0,0-19.53,4.85c-6.15,3.77-12.5,9.94-13.67,17.26s.9,9.66.9,9.66-1.48-8.07,2.57-13.6,12.12-12.91,22.28-14.62,14.12.4,17.81,4.08S242.32,455.93,247.44,453.5Z"/><path class="cls-6" d="M201.39,461.47s.14,3.36-2,1.7-8.43-1.78-8.74,6.46h0c3.21,7.62,14.47,3.14,13.29-4.48,0,0,.8-3.62,2.81-4.12.43-.11.64.15.75.62v0C210.11,454.59,205.61,452.09,201.39,461.47Z"/><path class="cls-7" d="M192.65,466.83c-2.09,1.74-2.66,8.34,5,13.65,0,0,5.57-9,3.16-12.32S194.65,464.84,192.65,466.83Z"/><path class="cls-8" d="M195,466.78c-5.07,2.61,0,9.74,2.31,11.59Z"/><path class="cls-7" d="M213.06,466.29c-2.34,1.38-3.94,7.81,2.76,14.26,0,0,6.92-8,5.07-11.67S215.35,464.64,213.06,466.29Z"/><path class="cls-8" d="M215.35,466.6c-5.41,1.78-1.53,9.61.45,11.81Z"/><path class="cls-6" d="M211,463.12c5.69-4.86,11.86.35,11.86.35a6.34,6.34,0,0,0-5.12-4.46A6.12,6.12,0,0,0,211,463.12Z"/><path class="cls-5" d="M263.4,427.89c-2.49,3.95-6.58,5.85-9.13,4.24s-2.62-6.12-.13-10.07,6.58-5.85,9.13-4.24S265.89,423.93,263.4,427.89Z"/><path class="cls-5" d="M250.78,440.52c-1.5,2.38-4,3.53-5.51,2.56s-1.57-3.69-.08-6.07,4-3.53,5.51-2.56S252.28,438.14,250.78,440.52Z"/><path class="cls-6" d="M191.75,461c2.91-3.47,8-.61,8-.61S195.66,454.39,191.75,461Z"/><path class="cls-6" d="M213.72,457.9s2.46-2,6.57,0C220.29,457.9,217.13,453.33,213.72,457.9Z"/><path class="cls-11" d="M233.27,442.54l14.17,11S245.35,443.94,233.27,442.54Z"/><path class="cls-11" d="M245,450.33a19.78,19.78,0,0,1,5.87,0s-3-3-6.78-2.06Z"/><path class="cls-11" d="M149.87,560.58s23,18.27,63.85,1.69C213.72,562.27,173.56,583.09,149.87,560.58Z"/></g><g id="Layer_16_copy" data-name="Layer 16 copy"><path class="cls-14" d="M312.46,266c.73,10.6-26.86,38.91-26.86,38.91-4.7,23.64-20.27,14.64-26.59,9.84-1.67-1.28-2.7-2.26-2.7-2.26l-2.22-1.56c-.73-13.47,5.85-58.5,5.85-58.5,25.77-27,39.43-24.9,42.6-23.64a4.73,4.73,0,0,1,.81.47C309.68,233.81,311.75,255.84,312.46,266Z"/><path class="cls-3" d="M266.52,137.52c-2.35-.89-8.74,1.22-10.22-.33a22.11,22.11,0,0,1-4.21-6.39s-5.18.36-6.64,0c-9-2.5-6.72-14-6.72-14s-8.45,3.19-13,2.33c-12.4-2-13.89-13.87-13.89-13.87a13.55,13.55,0,0,1-7.17,1.67c-8.31,0-12.69-9-12.69-9a16.6,16.6,0,0,1-5.83,5.5,16.92,16.92,0,0,1-4,1.71c-11.11,3.14-14.07-9.83-14.07-9.83-1.91,3.53-16.61,12.38-23,12.94-9.19,1.29-18.53-7.25-23.58-11.81-.81-.73-1.5-1.36-2.07-1.83l-3.78,5.86c-5.94,9.53-15.64,5.06-16.48,5.32-1.85,12.86-10.1,8.73-10.1,8.73a50.61,50.61,0,0,0-16.27,20.33l-.54,3.11c-3.87,7.68-3.52,15.71-4.54,23.14-.29,2.21-.5,4.35-.65,6.44a.06.06,0,0,0,0,.06c0,.58-.06,1.15-.08,1.72v.19h0a92.15,92.15,0,0,0,1.66,22.43s-2.23,25.62-1.9,28.44l-3.58,5.07s-17.06,25.79-18.22,31.49c-.51,2.57-1.92,14.22-3.32,26.21-1.06,9.15-2.11,18.5-2.74,24.17a5.07,5.07,0,0,1,.43,1c5.86,18.56,11.55,37.45,19.66,55.19,3.39,7.42,6.3,15,9.39,22.53.34.83.7,1.65,1.06,2.48a75.14,75.14,0,0,0,7.41,2.8c5.81,1.78,11.62,3.29,16.76,6.65,12.44,4.29,24.71,6.11,27.9,7.21,7.24,2.5,47.38-6.61,51.72-9.46,2.67-1.76,29.87-21.34,50.77-39.22,8.9-5.71,15.58-13.19,21.11-19,.4-.44,1.75-3,2.14-3.41,6.68-10,12-63,12-63l.78-18.54-1.41,21.86-2.22.06H244l.35-1.61.14-.57.59-2.57c.14-.57.28-1.19.43-1.84,0-.21.09-.41.14-.63.1-.42.21-.85.31-1.3.41-1.77.87-3.75,1.36-5.83.06-.25.12-.52.18-.78.56-2.37,1.13-4.87,1.71-7.39.13-.57.27-1.13.39-1.69s.26-1.13.38-1.69c.08-.28.14-.55.2-.83.71-3.07,1.41-6.09,2-8.86l.27-1.19c0-.11,0-.23.08-.35.08-.38.17-.74.25-1.11.45-2,.85-3.78,1.18-5.3.07-.29.13-.57.19-.85l.25-1.11c0-.25.09-.48.13-.68.21-.91.34-1.58.4-2,0-.16,0-.27,0-.31v0a34.51,34.51,0,0,0,.93-9.13v0c-1.48-2.12,3.47.52.4-4l-3.09-6.79a25.84,25.84,0,0,0-9.35-10.53L263,188.6,242.25,174l19.13-2.52-7.81-10,10.19-1.19C267.79,152.76,266.52,137.52,266.52,137.52Z"/><path class="cls-4" d="M68.34,386c.34.83.7,1.65,1.06,2.48.91.39,1.82.77,2.74,1.14C63.79,350.67,50.79,286.71,52,272.17c1.82-21.25,32.88-76.88,32.88-76.88s-3.81-9.87-3.81-28.28c0-8.48,19.42-39.55,40.36-70.6-.81-.73-1.5-1.36-2.07-1.83l-3.78,5.86c-5.94,9.53-15.64,5.06-16.48,5.32-1.85,12.86-10.1,8.73-10.1,8.73a50.61,50.61,0,0,0-16.27,20.33l-.54,3.11c-3.87,7.68-3.52,15.71-4.54,23.14-.29,2.21-.5,4.35-.65,6.44a.06.06,0,0,0,0,.06c0,.58-.06,1.15-.08,1.72v.19h0a92.15,92.15,0,0,0,1.66,22.43s-2.23,25.62-1.9,28.44l-3.58,5.07s-17.06,25.79-18.22,31.49c-.51,2.57-1.92,14.22-3.32,26.21-1.06,9.15-2.11,18.5-2.74,24.17a5.07,5.07,0,0,1,.43,1c5.86,18.56,11.55,37.45,19.66,55.19C62.34,370.88,65.25,378.43,68.34,386Z"/><g class="cls-18"><path class="cls-14" d="M283.77,210.47C279.64,172.69,271,134.55,254,100.35,242.46,77,227.65,55.66,212.9,34.28c-17,1.71-32.71,4.41-44,8.57-7-8.81-16.93-14.32-28-14.32-21.12,0-26.71,10.13-26.71,35s5.59,55,26.71,55a34.42,34.42,0,0,0,22.93-9,20.87,20.87,0,0,0,31.22.71,19.6,19.6,0,0,0,9.8,6.91,18.92,18.92,0,0,0,5.9.83c46.05,54.28.3,98.76.3,98.76s33.41,108.82-87.63,130.5C82.24,354.54,22.1,330.33,22.1,330.33L-8.33,389.92a234.15,234.15,0,0,0,39.68,17c48.17,15.67,100.67,17.66,150.5,9.76,14.12-2.23,27.81-5.45,41-11.11,12.44-5.34,24.18-12.19,35.68-19.29a193.57,193.57,0,0,0,19.28-13.65c3.67-16.17,5.22-32.68,6.57-49.2C287.43,285.88,287.87,248,283.77,210.47Z"/><path class="cls-14" d="M152.05,305c-62.56-.62-60.93-23.32-60.93-23.32l-4.21-2.53-2.32-6.77,1.06-5.8c2-3.5,15.32-6.43,15.32-6.43l.43,1.54a3.71,3.71,0,0,0-2.08,2.48c-.64,3.84,7.74,8.47,18.75,10.31s20.43.22,21.07-3.63a2.83,2.83,0,0,0-.22-1.6L147,271l-.06.33C165.23,274.49,189.22,305.64,152.05,305Z"/></g><path class="cls-19" d="M86,105.82l31.39-4c-5.94,9.53-16.31,5.17-17.15,5.42-1.86,12.86-9.86,9.86-9.86,9.86-7.53,5.39-12.63,12.83-16.09,20.4l-5.49-7Z"/><path class="cls-19" d="M122.07,101.19l46-5.91c-1.9,3.53-16.61,12.38-23,12.94C134.4,109.72,126.21,104.61,122.07,101.19Z"/><path class="cls-19" d="M254.26,247l5.79,2.76-.11,2.68-1.41,21.86-2.22.06H244l.35-1.61.13-.57.6-2.57.42-1.84c0-.21.1-.41.15-.63.09-.42.2-.85.3-1.3.41-1.77.87-3.75,1.36-5.83.06-.25.12-.52.18-.78.56-2.37,1.13-4.87,1.71-7.39.13-.57.27-1.13.39-1.69s.27-1.13.39-1.69c.07-.28.13-.55.19-.83.72-3.07,1.41-6.09,2-8.86.1-.4.18-.8.28-1.19,0-.11.05-.23.07-.35.08-.38.17-.74.25-1.11.45-2,.85-3.78,1.18-5.3.07-.29.14-.57.2-.85s.17-.76.24-1.11.1-.48.13-.68c.21-.91.34-1.58.4-2a2.07,2.07,0,0,0,0-.31v0a34.09,34.09,0,0,0,.93-9.13l.93,1.29Z"/><path class="cls-19" d="M285.6,143.9l-23.9,62.42-8.48-.38a25.86,25.86,0,0,0-9.34-10.54l19.17-6.8L242.25,174l19.14-2.52-7.82-10,10.19-1.19c4-7.59-1.72-19.24-1.72-19.24a15.72,15.72,0,0,1-5.74-3.92,22.11,22.11,0,0,1-4.21-6.39s-5.18.36-6.64,0c-9-2.5-6.72-14-6.72-14s-8.44,3.19-13,2.32c-12.4-2-13.89-13.86-13.89-13.86a13.55,13.55,0,0,1-7.17,1.67c-8.31,0-12.69-9-12.69-9a17.31,17.31,0,0,1-9.81,7.21c-11.11,3.14-14.07-9.83-14.07-9.83l3.85-.5,48.38-6.21,60.2,33.76Z"/><path class="cls-20" d="M292.74,101c-.05.06-.05,0,0-.1A.19.19,0,0,1,292.74,101Z"/><path class="cls-20" d="M256.31,274.36l-12.43.34s.17-.71.46-1.95l-.35,1.61Z"/><path class="cls-20" d="M296.35,229.22c-13.46,2.57-24.83,15.06-24.83,15.06l-.26.18C273.45,242.14,284.94,230.51,296.35,229.22Z"/><path class="cls-21" d="M126.58,353.87l-3.35-24.45c-16.13,2.76-34.75-6.3-34.75-6.3l-9.56,22.11c-7.11-3.81-10.4-7.39-10.4-7.39l3-30.71,4.75-1.45s24.54-5.29,25.85-5.3,5.54,5.46,5.54,5.46c1.28-1.45,6.5-3,8.25-3.26S127,308,132.38,311.19s19.91,13.46,19.91,13.46l3.37,1.48,1,22.47A153.17,153.17,0,0,1,126.58,353.87Z"/><path class="cls-21" d="M328.29,124.09l-.94,1-7.35,8.1s-.22-.18-.58-.53a.57.57,0,0,1-.11-.11l-.22-.22s0,0,0-.05a.1.1,0,0,1-.06-.07l-.1-.11a5.4,5.4,0,0,1-.56-.61,7.13,7.13,0,0,1-.58-.75,23.62,23.62,0,0,1-1.53-2.28c-.12-.19.58-.62.47-.83s.06-.55.37-1a4.2,4.2,0,0,1-1.26-2.4c-1.27-2-2-4.14-3.13-6.22a40.56,40.56,0,0,0-5.73-7.36l-2.21-1.76-14.33-5.58c12.4-27.58-13.85-30.6-14.05-31.26-3.55-17.77-22.81-22.46-23.12-21.87,10.35,15.17,2.42,19.69,2.42,19.69,1.63-7.84-5.09-13.82-10-16.38a16.11,16.11,0,0,0-16.81,4.89s-5.56-7.73-9.82-10.12c-13.13-3.35-17.92,9.47-17.92,9.47-10.41-19-28.71-12.83-28.71-12.83a117.41,117.41,0,0,0-10.24-6c-10.41-2.42-12.81,7.16-12.81,7.16s-7.63-9.94-16.65-8.87c-15.43,2.49-16,14.13-16,14.13-8-3.32-17.83-1.25-25.14,2.3-20.79,15.36-9.11,33.49-9.11,33.49-22,10.46-8,32.14-8,32.14-15.07,5.74-5.91,16.82-5.91,16.82-14.91,12.44-1.83,32.93-1.56,33.33v-.19c0-.29,0-.87.08-1.72a.06.06,0,0,1,0-.06c.09-1.47.26-3.7.65-6.44a84.63,84.63,0,0,1,6.58-23.59c3.46-7.57,8.57-15,16.09-20.4,0,0,8,3,9.87-9.86.84-.25,11.21,4.11,17.14-5.42a21.46,21.46,0,0,0,1.69-3.46,25.41,25.41,0,0,0,3,2.85c4.14,3.42,12.33,8.53,23,7,6.42-.56,21.12-9.41,23-12.94,0,0,3,13,14.07,9.83A17.35,17.35,0,0,0,192,97.9s4.38,9,12.69,9a13.55,13.55,0,0,0,7.17-1.67s1.49,11.83,13.89,13.87c4.57.86,13-2.33,13-2.33s-2.33,11.49,6.72,14c1.46.36,6.64,0,6.64,0a22.11,22.11,0,0,0,4.21,6.39,15.64,15.64,0,0,0,5.74,3.92s5.75,11.65,1.72,19.24l-10.19,1.19,7.81,10L242.25,174,263,188.6l-19.17,6.81a25.84,25.84,0,0,1,9.35,10.53,26.36,26.36,0,0,1,2.69,10.78v0a34.51,34.51,0,0,1-.93,9.13v0s0,.15,0,.31c-.06.39-.19,1.06-.4,2,0,.2-.09.43-.13.68l-.25,1.11c-.06.28-.12.56-.19.85-.33,1.52-.73,3.31-1.18,5.3-.08.37-.17.73-.25,1.11,0,.12,0,.24-.08.35l-.27,1.19c-.62,2.77-1.32,5.79-2,8.86-.06.28-.12.55-.2.83-.12.56-.25,1.13-.38,1.69s-.26,1.12-.39,1.69c-.58,2.52-1.15,5-1.71,7.39-.06.26-.12.53-.18.78-.49,2.08-1,4.06-1.36,5.83-.1.45-.21.88-.31,1.3,0,.22-.09.42-.14.63-.15.65-.29,1.27-.43,1.84l-.59,2.57-.14.57-.35,1.61c-4.22,13.46-8.82,24-11.44,25.08-20.75,20-59.52,29.53-65.3,30.75,1.33-7.17,2.49-13.45,2.35-14.07C167.37,313.06,130,291,127.08,291s-17,1.4-17,1.4l-6.55-6.7c-.72-.24-42.74,9.73-42.81,10.92s-.16,12.09-.12,22.05a24.67,24.67,0,0,1-2.88-1.77c-15.25-10.79-16.92-36.84-16.92-36.84L38,309.2s20.91,74,23,76.14c1.75,1.8,41.24,15.37,57.07,21.3,1.38.08,2.76.19,4.14.31h.32a72.08,72.08,0,0,1,8,.27l6.64-2-.81,2.36a34.79,34.79,0,0,0,8-.56l.52-.48.34.31c2.93-.69,5.74-1.62,8.55-2.52l.06-.2.09.16c2.51-.8,5-1.57,7.61-2.12,6.84-2.51,24.17-10.15,48.67-29.89,29.28-22.39,40.23-41.4,40.23-41.4l5.43-31.68,3.22-24.82h-2.83l2.22-.06,1.41-21.86,11.31-8a64.61,64.61,0,0,1,4.83-4.6l.82-.7a63.14,63.14,0,0,1,6.94-5.1l.64-.38.45-.27c.21-.12.42-.26.63-.37a35.25,35.25,0,0,1,3.53-1.77l.89-.37c.34-.15.69-.28,1-.4.71-.26,1.41-.48,2.13-.67q.47-.14,1-.24l.15,0,.91-.17a.72.72,0,0,1,.22,0l1-.13h0a23.24,23.24,0,0,1,6.18-.42,23.85,23.85,0,0,0,.86-2.53l.15-.52a1.8,1.8,0,0,1,.06-.22c.06-.25.12-.52.19-.8a26.72,26.72,0,0,0,.5-3.17c0-.32.06-.65.07-1,.27-5.66-1.59-12.68-10.73-16.9,0,0,.88,0,2.29-.13l.35,0c1.22-.11,2.8-.29,4.54-.59l.55-.11c.65-.11,1.29-.25,2-.4.87-.21,1.76-.44,2.64-.7h0l1.17-.37.1,0,1.33-.49c.29-.1.58-.23.87-.35a.27.27,0,0,0,.11,0c.32-.13.64-.28.95-.42.65-.32,1.27-.66,1.88-1l.81-.52c.38-.26.74-.52,1.08-.8l.56-.46c.25-.23.5-.45.73-.7a10.88,10.88,0,0,0,2.54-3.91,3,3,0,0,0,.13-.36c.07-.18.12-.36.18-.55a11.58,11.58,0,0,0,.37-2.49c.32-5.47-5.12-10.24-5.12-10.24S328,169,323.15,160.05c-.68-1.29-1.31-2.38-1.88-3.33-.13-.24-.28-.46-.41-.68s-.26-.42-.39-.63-.25-.38-.36-.57a24.25,24.25,0,0,0-2-2.7,1.61,1.61,0,0,0-.22-.23,1.23,1.23,0,0,0-.19-.2l.14-.76C337.22,140.36,328.29,124.09,328.29,124.09Z"/><path class="cls-22" d="M122.53,406.94h-.32c-1.38-.12-2.76-.23-4.14-.31-15.83-5.93-55.32-19.5-57.07-21.3-2.06-2.1-23-76.14-23-76.14l2.76-29.14s1.67,26.05,16.92,36.84c3.68,21.36,9.1,51.72,10.81,55.64C70.55,377.17,105.57,397.37,122.53,406.94Z"/><path class="cls-23" d="M245.94,265.84c-.1.45-.21.88-.3,1.3l.14-.65C245.83,266.28,245.89,266.06,245.94,265.84Z"/><path class="cls-23" d="M318.33,131.52a6.26,6.26,0,0,1-.6-.76c.11.13.21.25.31.39A2.48,2.48,0,0,0,318.33,131.52Z"/><path class="cls-23" d="M245.94,265.84c-.1.45-.21.88-.3,1.3l.14-.65C245.83,266.28,245.89,266.06,245.94,265.84Z"/><path class="cls-23" d="M271.25,244.47l-.36.39L260,252.71l-.87,21.65h-2.83l2.22-.06,1.41-21.86Z"/><path class="cls-23" d="M319,132.24a14.67,14.67,0,0,1-1.25-1.48c.11.13.21.25.31.39C318.39,131.57,318.71,132,319,132.24Z"/><path class="cls-24" d="M152.39,324.31a2.06,2.06,0,0,1,0,.35h-.08c-1.71-.21-20.45-2.68-27.21-8.13-1.57-1.27-15.87.19-21.12-1s-13.81-6.85-13.81-6.85S83.71,311,78,308.09h0A12.41,12.41,0,0,1,75.08,306l1.18-.33c1.44-.4,4.06-1.1,7.13-1.86,7.58-1.93,17.85-4.24,19.41-3.17,1.91,1.12,4.84,5.19,4.84,5.19s4.6-3.47,8.74-3.12c3.2.26,23.19,12.72,31.93,18.63,1.64,1.09,2.89,2,3.56,2.49a0,0,0,0,0,0,0A2.87,2.87,0,0,1,152.39,324.31Z"/><path class="cls-25" d="M152.29,324.65s0,0,0,0h-.08a152.79,152.79,0,0,1-28.95,4.71c-7.24.4-14.8.09-21.28-1.66a91.11,91.11,0,0,1-13.47-4.64c-17.06-7.69-10.52-15-10.52-15h0a13.19,13.19,0,0,0,4,1.26,18.57,18.57,0,0,0,8.11-.64s8.54,5.71,13.8,6.85,19.56-.31,21.13,1a28.58,28.58,0,0,0,8.81,4.2A113.72,113.72,0,0,0,152.29,324.65Z"/><path class="cls-26" d="M133.89,320.72c-5.87,4-15.58,5.24-31.32.35C92,317.78,85.64,313.64,82,309.35a18.57,18.57,0,0,0,8.11-.64s8.54,5.71,13.8,6.85,19.56-.31,21.13,1A28.58,28.58,0,0,0,133.89,320.72Z"/><path d="M244.29,266.94a22.71,22.71,0,0,1,3.37,4.44,22.39,22.39,0,0,1,2.33,5.06,25.65,25.65,0,0,1-5.7-9.5Z"/><path d="M245.06,263.67a55,55,0,0,1,10.25,12.56,47.25,47.25,0,0,1-5.6-5.9A48,48,0,0,1,245.06,263.67Z"/><path d="M247.57,262.41a54.09,54.09,0,0,1,10.76,12,47.61,47.61,0,0,1-5.83-5.61A48.36,48.36,0,0,1,247.57,262.41Z"/><path d="M250.62,256.81a33.73,33.73,0,0,1,5.18,4.32,33.17,33.17,0,0,1,4.32,5.18,33.17,33.17,0,0,1-5.18-4.32A33.73,33.73,0,0,1,250.62,256.81Z"/><path d="M253.16,251.12a16.72,16.72,0,0,1,3.61,3.07,16.54,16.54,0,0,1,2.72,3.89,18.37,18.37,0,0,1-6.33-7Z"/><path d="M253.79,248.58a10.2,10.2,0,0,1,3.22,1.74,9.9,9.9,0,0,1,2.48,2.7,9.91,9.91,0,0,1-3.22-1.74A10,10,0,0,1,253.79,248.58Z"/><path d="M253.79,242.25a28,28,0,0,1,5.13,3.33,27.07,27.07,0,0,1,4.36,4.27,27.08,27.08,0,0,1-5.12-3.32A27.62,27.62,0,0,1,253.79,242.25Z"/><path d="M257.18,241.27a26.9,26.9,0,0,1,5.37,2.67,26.15,26.15,0,0,1,4.73,3.7,29.45,29.45,0,0,1-10.1-6.37Z"/><path d="M260.52,236a27.75,27.75,0,0,1,5.36,3.06,27.47,27.47,0,0,1,4.66,4.05,31.43,31.43,0,0,1-10-7.11Z"/><path d="M263.92,232.76a27.08,27.08,0,0,1,5.12,3.32,26.72,26.72,0,0,1,4.37,4.27,30.8,30.8,0,0,1-9.49-7.59Z"/><path d="M268.6,231.18a33.94,33.94,0,0,1,5.71,3.68,33.51,33.51,0,0,1,5,4.63,32.45,32.45,0,0,1-5.72-3.68A33.44,33.44,0,0,1,268.6,231.18Z"/><path d="M272.93,227.49a33.47,33.47,0,0,1,5.8,3.55,33.89,33.89,0,0,1,5.08,4.52A32.86,32.86,0,0,1,278,232,33.89,33.89,0,0,1,272.93,227.49Z"/><path d="M276.71,225a43.32,43.32,0,0,1,11.43,8.81,37.35,37.35,0,0,1-6.08-3.92A38,38,0,0,1,276.71,225Z"/><path d="M247.5,197.24a55,55,0,0,1,7.6,3.9,53.32,53.32,0,0,1,7,4.94,52.34,52.34,0,0,1-7.6-3.9A53.32,53.32,0,0,1,247.5,197.24Z"/><path d="M250.1,195.1a61,61,0,0,1,8.76,2.62,59.61,59.61,0,0,1,8.33,3.74,59.68,59.68,0,0,1-8.76-2.61A60.85,60.85,0,0,1,250.1,195.1Z"/><path d="M250.16,178a62.29,62.29,0,0,1,8.46,3.67,59.86,59.86,0,0,1,7.9,4.74A69.34,69.34,0,0,1,250.16,178Z"/><path d="M252.58,177.36a98.09,98.09,0,0,1,11.49,1.33,96.22,96.22,0,0,1,11.29,2.53,97.84,97.84,0,0,1-11.49-1.33A99.46,99.46,0,0,1,252.58,177.36Z"/><path d="M255.17,162.3a86.18,86.18,0,0,1,9.51,5.16,84.46,84.46,0,0,1,8.88,6.19,97,97,0,0,1-18.39-11.35Z"/><path d="M259.05,163.79A140.88,140.88,0,0,1,283.74,172a138.71,138.71,0,0,1-24.69-8.24Z"/><path d="M262.71,161.54a49,49,0,0,1,15.18,2.58,42.79,42.79,0,0,1-7.69-.69A43.71,43.71,0,0,1,262.71,161.54Z"/><path d="M257.6,218.82a33.3,33.3,0,0,1,10.13,7.59,29.28,29.28,0,0,1-5.43-3.31A29.71,29.71,0,0,1,257.6,218.82Z"/><path d="M255.29,221.73a42.55,42.55,0,0,1,10.76,9.5,37.87,37.87,0,0,1-5.78-4.3A38.33,38.33,0,0,1,255.29,221.73Z"/><path d="M259.54,213.66a38.27,38.27,0,0,1,6.62,3,37.46,37.46,0,0,1,6,4,37.82,37.82,0,0,1-6.62-2.95A38.66,38.66,0,0,1,259.54,213.66Z"/><path d="M282.28,222.63a39,39,0,0,1,6.07,4,38.53,38.53,0,0,1,5.32,4.91,38.55,38.55,0,0,1-6.07-4A38,38,0,0,1,282.28,222.63Z"/><path d="M286.07,217.57a21.72,21.72,0,0,1,4.79,2.67,22,22,0,0,1,4.08,3.66,22.13,22.13,0,0,1-4.79-2.67A22.76,22.76,0,0,1,286.07,217.57Z"/><path d="M263.92,208.07a26.14,26.14,0,0,1,5.1,3,25.76,25.76,0,0,1,4.39,4,25.17,25.17,0,0,1-5.1-3A26.14,26.14,0,0,1,263.92,208.07Z"/><path d="M260.17,195.66a27.86,27.86,0,0,1,11.44,1.6,27.86,27.86,0,0,1-11.44-1.6Z"/><path d="M283,193.3a25,25,0,0,1,10.75,1.95,21.82,21.82,0,0,1-5.49-.38A22.2,22.2,0,0,1,283,193.3Z"/><path d="M282.3,188.91a44.9,44.9,0,0,1,14.58,1.72,44.9,44.9,0,0,1-14.58-1.72Z"/><path d="M277.92,179.2a83.49,83.49,0,0,1,19.64,3.7,71.49,71.49,0,0,1-9.93-1.25A73,73,0,0,1,277.92,179.2Z"/><path d="M267.71,159a16.43,16.43,0,0,1,8.87-.06,14.43,14.43,0,0,1-4.43.63A14.72,14.72,0,0,1,267.71,159Z"/><path class="cls-27" d="M122.3,79.92A13.29,13.29,0,0,0,138,90.55,11.52,11.52,0,0,1,122.3,79.92Z"/><path class="cls-27" d="M124.08,80.59a12.11,12.11,0,0,0,18.6,3.56,10.84,10.84,0,0,1-18.6-3.56Z"/><path class="cls-27" d="M126.2,79.67a16.35,16.35,0,0,0,17.33-2.3,12.59,12.59,0,0,1-17.33,2.3Z"/><g class="cls-28"><path class="cls-29" d="M238.3,66.85A13.33,13.33,0,0,1,245,75.23a10.05,10.05,0,0,1,0,5.65,6.28,6.28,0,0,1-1.41,2.5,4.17,4.17,0,0,1-2.43,1.32,5.69,5.69,0,0,0,2.31-4.17,11.35,11.35,0,0,0-.41-4.77A24.78,24.78,0,0,0,238.3,66.85Z"/></g><g class="cls-28"><path class="cls-29" d="M236.71,65.58A12.44,12.44,0,0,1,242.65,68,15.8,15.8,0,0,1,247,72.83a14.11,14.11,0,0,1,1.35,11.49l-.09.25-.17-.1-1-.54,1.1.17-.25.15a20.41,20.41,0,0,0-2.7-10.43A20.93,20.93,0,0,0,236.71,65.58Z"/></g><g class="cls-28"><path class="cls-29" d="M237.14,66.32a17.27,17.27,0,0,1,7.75,2,21.59,21.59,0,0,1,10.38,12.14,17.29,17.29,0,0,1,.77,8,27.71,27.71,0,0,0-18.9-22.1Z"/></g><path d="M264.17,112.93a5.36,5.36,0,0,1,2-6.09,5.72,5.72,0,0,1,6.73.35l-.72.89a5.46,5.46,0,0,1-2.12-4.29,5,5,0,0,1,1.89-4,5.35,5.35,0,0,1,4.19-1.18l2.18.36-2.09.61a3.91,3.91,0,0,1-4.52-1.94,3.65,3.65,0,0,1,1.11-4.48,3.45,3.45,0,0,0-.56,4.17,3.19,3.19,0,0,0,3.66,1.3l.08,1a4.42,4.42,0,0,0-3.31,1.07,3.9,3.9,0,0,0-1.41,3.09,4.39,4.39,0,0,0,1.59,3.38l-.71.89a4.92,4.92,0,0,0-5.56-.55A5.24,5.24,0,0,0,264.17,112.93Z"/><path class="cls-27" d="M170.79,66.34a4.3,4.3,0,1,1,6.38-5.76,4.42,4.42,0,0,0-6.38,5.76Z"/><path class="cls-27" d="M164.12,60.9a5,5,0,0,1,9.46-1.63,5.79,5.79,0,0,0-9.46,1.63Z"/><path class="cls-27" d="M142.86,50.89a10.06,10.06,0,0,1,15.8,9.93,10.86,10.86,0,0,0-15.8-9.93Z"/><path class="cls-27" d="M90.39,93.23a5.18,5.18,0,0,1-4-3.39A5.27,5.27,0,0,1,86.08,87l.1-.47s0,0,0,0h0L86,86.46l-.33-.14A4.83,4.83,0,0,1,85,86a5.68,5.68,0,0,1-2.74-4.76,5.37,5.37,0,0,1,2.58-4.6A5.73,5.73,0,0,0,83,81.2a5.19,5.19,0,0,0,2.48,3.94,3.84,3.84,0,0,0,.53.28l.27.12.14,0a1.7,1.7,0,0,0,.29.09l.62.18.07,0,0,.07-.06.15-.1.29-.11.28c0,.1-.07.21-.08.24L87,87.2a4.74,4.74,0,0,0,.11,2.39A5.37,5.37,0,0,0,90.39,93.23Z"/><path d="M73,141.94a5.48,5.48,0,0,1-2.21-5.4,5.55,5.55,0,0,1,1.43-2.83,6.79,6.79,0,0,1,1.24-1c.23-.14.47-.26.72-.38l.45-.18h0s-.15-.18-.21-.27a4.77,4.77,0,0,1-.67-1.38,4.18,4.18,0,0,1,.23-3,4,4,0,0,1,4.91-2,3.91,3.91,0,0,0-4.08,2.34,3.63,3.63,0,0,0,.55,3.32l.22.26c.17.16.38.31.57.47l1.36.92-1,.15c-.32.06-.7.09-1,.16l-.64.18-.31.11a6.36,6.36,0,0,0-.58.3,5.28,5.28,0,0,0-1,.8,5,5,0,0,0-1.33,2.24A5.71,5.71,0,0,0,73,141.94Z"/><path d="M277.53,176.28a67.2,67.2,0,0,1,9.49-.6,65.89,65.89,0,0,1,9.5.61,64.48,64.48,0,0,1-9.5.6A65.75,65.75,0,0,1,277.53,176.28Z"/><path d="M260.41,218.55a18.51,18.51,0,0,1,4.42,2.29,17.59,17.59,0,0,1,3.73,3.29,17.82,17.82,0,0,1-4.42-2.29A18.39,18.39,0,0,1,260.41,218.55Z"/><path d="M253.31,236.08a8.36,8.36,0,0,1,3.16,1.14A8.46,8.46,0,0,1,259,239.4a8.14,8.14,0,0,1-3.15-1.13A8.39,8.39,0,0,1,253.31,236.08Z"/><path d="M285.64,216.84l1.88.14.46,0,.23,0h.56c.44,0,.43-.07.3-.13-.41-.15-.6-.2-.7-.23l-.09,0h0l-.07,0-.33-.15-1.36-.59-1.53-.67,3.5-.88,1.81-.43,1.82-.41.22,0h.19l.36,0-.31-.24-.12-.08-.26-.15-.55-.33c-.73-.44-1.46-.89-2.18-1.35.8.3,1.6.61,2.39.93l.59.24.31.13.45.2,2,.89L290.57,215l-1.79.5-.1,0h0l.27.12.67.29,2.62,1.17,4.72,2.14c-2.59-.48-5.06-.95-7.08-1.38l-1.42-.3-.56-.13-.45-.12Z"/><path d="M268.48,227.66a36.52,36.52,0,0,1,3.93.29l.24,0s0,0,.05,0,.05,0,0,0v-.06c0-.09,0-.26,0-.39a3.7,3.7,0,0,0-.42-1.6c-.05-.09-.1-.18-.16-.27l-.05-.08-.12-.15-.25-.29-1.39-1.2,1.53-.09.77,0,.58,0c.53,0,1.06,0,1.59,0a31.19,31.19,0,0,1,3.19.19c-1,.27-2.08.48-3.13.65l-1.57.22-.19,0h0l0,0s0,0,0,0h0l.06.08c.07.12.15.24.21.36a4.43,4.43,0,0,1,.49,2.17c0,.2,0,.35-.06.58s-.15.59-.24.86l-.06.21s-.14,0-.21,0l-.44-.08-.42-.1-.24-.07A34,34,0,0,1,268.48,227.66Z"/><path class="cls-13" d="M74.44,214.27s4,21.55,31.07,12.84c0,0,4,2.59,6.66-.27l-2.6-6.17s-22.83-8.94-24.64-9.11S74.44,214.27,74.44,214.27Z"/><path class="cls-13" d="M157.48,237.86s2.7,3.46,5.11,2c0,0,23,20.75,41.86.37a22.14,22.14,0,0,1-1.82-2.34l-28.37-8.72Z"/><path class="cls-14" d="M226.53,230.86l-17.09,13.42-.2-.17-9.59-7.62-14-4.05-11.38-3.29L152.2,240.67l-2,12.09L149,259.6,147,271l-8.12-1.74a7.76,7.76,0,0,0-2.79-3l-.52-.38a28.77,28.77,0,0,0-4.79-2.43l2.86-13.79,4.5-21.68-14.94-3.86L108,257.46l6.18-25.21-4.64-11.58-22.7-8.75-19.24,4.94a113.47,113.47,0,0,1-.5-22.09l6.5-5.6,37.73,14.19s1.42-5.32,2.17-9c.31,3,1.15,6.94,1.15,6.94l4-6.54-.64,7.6,6.85-4.84-2.47,6.76,14.5,8-3.28-11,7.63,10.77-6.59-12.36,9.33,9.94-6.11-13.15L146.71,213l-1.19-15.35L149,210.23,151,199.72l3.37,9.47.69-13.94,7.19,16.32-3.93,2.8H178l28.17,8.54,6.53,2,6.43,2Z"/><path class="cls-30" d="M113.53,194.35c-.18-1.69-.2-3.09.21-3.35S113.94,192.27,113.53,194.35Z"/><path class="cls-30" d="M67.63,216.86l.38-4.05s14.19-7.23,15.16-7.25,31,13.83,31,13.83l-1,10.36-3.64-9.08-22-10.15Z"/><path class="cls-30" d="M152.2,240.67s18.24-15.82,21.14-16,24.17,8.37,24.17,8.37l5.12,4.8-27.44-7.46Z"/><path class="cls-27" d="M103.52,75S108,37,149.1,55.1c0,0-21.17-5.3-29.7,7.13,0,0,13.88-9.28,19.3,3.71,0,0-7.86-9-15.47-1.1a10.72,10.72,0,0,0-4.55,11S110.84,82.14,103.52,75Z"/><path class="cls-27" d="M76.12,90.19s-2.91,14.61,9.52,9.43c0,0-4.52,6,2.84,5.65,0,0,7.1,5.94,9.45-4.66,0,0,6.46,4.6,7.09-2,0,0,8.69,5.14,8.93-5.19l4.73,6.25s-7,13.56-16.64,7.2l-4.11.25s4.82,8.1-7.81,9.29c0,0-24.76,18.86-22.49,54.18,0,0-13.89-20.08-.12-34.64,0,0-8.75-13.6,6.93-16.57C74.44,119.33,62.09,107.78,76.12,90.19Z"/><path class="cls-31" d="M119.06,98.34s46.82,1.61,43.53-32.4c0,0,.22,11.44,10.1,12.45S186,72.08,186,72.08s-4.72,16.64,7.1,16.49V97s14.75,8.71,18.51-6.82c0,0,6.76,10.77-7.09,16.84,0,0-7-2.34-9.34-5.43s-2.49-5.22-3.68-3-5.43,9-16.42,5.66c-4.94-1.5-7-10.55-7-10.55s-8.19,16.78-29.2,14.64C124.64,107.67,119.06,98.34,119.06,98.34Z"/><path class="cls-31" d="M220.71,50.2S203.94,52.35,209,72.68c0,0,12.3-10.86,17.39,3.16C226.39,75.84,237.65,56.29,220.71,50.2Z"/><path class="cls-31" d="M189.31,46.14S174.6,51.22,180,67.06c0,0,11.16-17.05,21.09-2.67C201.13,64.39,199.54,48.56,189.31,46.14Z"/><g class="cls-32"><path class="cls-33" d="M279,148.21a11.2,11.2,0,0,1,7.37,1.7,12.31,12.31,0,0,1,5.39,13.88,11.15,11.15,0,0,1-4.29,6.22,15.73,15.73,0,0,0,2.42-6.61,13,13,0,0,0-4.64-12A15.54,15.54,0,0,0,279,148.21Z"/></g><g class="cls-32"><path class="cls-33" d="M272,182.8a14.85,14.85,0,0,1,4.93,8.61,16.29,16.29,0,0,1,.17,5.17l-.22,1.29-.33,1.27-.21.62c0,.07,0,.07,0,.07h0s0,0,0,0h.07l.24,0a8.48,8.48,0,0,1,2,.6,9.68,9.68,0,0,1,4.73,4.44,8,8,0,0,1,.49,6.46,8.81,8.81,0,0,1-4.12,4.69,7.76,7.76,0,0,1-5.88.71,8.31,8.31,0,0,0,8.18-6c.93-3.28-1.3-6.82-4.36-8.09a5.83,5.83,0,0,0-1.49-.46.63.63,0,0,0-.23,0h-1.43c-.64,0-1.28,0-1.91,0l1.06-2.23.26-.56.2-.51.21-.52.33-1.09.26-1.11a17.46,17.46,0,0,0-3-13.44Z"/></g><g class="cls-32"><path class="cls-33" d="M282.3,126.92a6.1,6.1,0,0,1,5.16-2,6.91,6.91,0,0,1,6.31,8.65,6.11,6.11,0,0,1-3.44,4.31,8,8,0,0,0,1.55-4.58,6.2,6.2,0,0,0-4.74-6.51A8,8,0,0,0,282.3,126.92Z"/></g><g class="cls-32"><path class="cls-33" d="M239.13,115a14.42,14.42,0,0,0,2.18,5.92,12,12,0,0,0,9.9,5.71,14.58,14.58,0,0,0,6.21-1.09,9.89,9.89,0,0,1-6.12,3,11.12,11.12,0,0,1-11.68-6.73A10,10,0,0,1,239.13,115Z"/></g><g class="cls-32"><path class="cls-33" d="M269.57,81a10,10,0,0,1,7.59-.57,12.57,12.57,0,0,1,9,12.28,10,10,0,0,1-2.84,7.06,24,24,0,0,0-.95-6.62,17.5,17.5,0,0,0-2.55-5.24,17.22,17.22,0,0,0-4.22-4A23.17,23.17,0,0,0,269.57,81Z"/></g><path class="cls-34" d="M118.12,260.23c-1.13-.13-2.25-.24-3.32-.31C115.87,260,117,260.09,118.12,260.23Z"/><path class="cls-4" d="M128.73,268.18c.21-1-1.56-3.48-4.49-4.07s-5.91.88-6.12,1.9,2,2.34,4.93,2.94a14,14,0,0,0,2.88.29,4,4,0,0,0,2.59-.68A.8.8,0,0,0,128.73,268.18Z"/><path class="cls-30" d="M200.93,251.24a27.3,27.3,0,0,1-21.54,7.49C160.22,256.52,153.13,242,153.13,242S176.4,259.76,200.93,251.24Z"/><path class="cls-30" d="M110.07,230.86c-22.33,10.92-38.91-7-38.91-7S72.9,238,87.85,239.65C102.1,242,110.07,230.86,110.07,230.86Z"/><g class="cls-35"><path class="cls-13" d="M80.79,309.66a3.13,3.13,0,0,0-.05.58,3.37,3.37,0,0,0,.09.77,3.26,3.26,0,0,0,.22.78,3.33,3.33,0,0,0,.35.77,10.08,10.08,0,0,0,1,1.5c.45.44.82.95,1.3,1.37s1,.86,1.48,1.24l1.62,1.14c.56.34,1.15.66,1.72,1l.87.5.91.43,1.82.88c.61.29,1.25.51,1.88.77l1.89.76c.63.24,1.28.44,1.92.66,2.57.93,5.2,1.65,7.82,2.43l-.19.83c-2.69-.59-5.4-1.1-8-1.9-.67-.19-1.34-.35-2-.57l-2-.66c-.66-.23-1.33-.42-2-.69l-1.94-.8-1-.4-.94-.47c-.63-.32-1.27-.62-1.89-1l-1.82-1.13c-.61-.39-1.16-.87-1.74-1.31a19.45,19.45,0,0,1-1.61-1.54,11.68,11.68,0,0,1-1.32-1.9,4.69,4.69,0,0,1-.5-1.09,5.32,5.32,0,0,1-.33-1.2,5.4,5.4,0,0,1-.1-1.28,4.72,4.72,0,0,1,.28-1.43Z"/></g><path class="cls-6" d="M263.36,266l7.42,5.84-3.71,14.55s19-6.16,21.39-20.64c0,0-.15-4.08-6.73-6.91L289.85,242,297,264.18s8-14.19,7.44-17.46a36.14,36.14,0,0,0-2.21-7s-5.24-4.11-16.51,3.11c-9.84,5.79-19.58,18.32-19.58,18.32Z"/><path class="cls-36" d="M88.88,275.26s1.51,4.63,2.73,5.43S108,284.41,108,284.41l5.13,3.52,5,.84,5.12-1.45,1.63-1.35s11.66,6.93,17.83.12c-.63,0-10.75-1.68-10.75-1.68l-7-2.71h-5.66l-5,4.4s-4.17,3.23-7.62-4.4c-.45.12-3.06-2.57-3.06-2.57l-4.23-3.47-3.6,1.26"/><path class="cls-37" d="M152.39,324.31a2.06,2.06,0,0,1,0,.35h-.08c-1.71-.21-20.45-2.68-27.21-8.13-1.57-1.27-15.87.19-21.12-1s-13.81-6.85-13.81-6.85S83.71,311,78,308.09h0A12.41,12.41,0,0,1,75.08,306l1.18-.33c1.44-.4,4.06-1.1,7.13-1.86L92.56,305s6.64,10.34,31.35,7.49c.76-.3,14.31,4.89,24.4,8.83,1.64,1.09,2.89,2,3.56,2.49a0,0,0,0,0,0,0A2.87,2.87,0,0,1,152.39,324.31Z"/><g class="cls-28"><path class="cls-29" d="M99.71,63.7a16.54,16.54,0,0,0-4.09,10.39,13.59,13.59,0,0,0,12.31,14.65,16.55,16.55,0,0,0,10.93-2.22A12.18,12.18,0,0,1,114,90.31a15.67,15.67,0,0,1-6.26,1.26A14.82,14.82,0,0,1,92.81,73.78a15.65,15.65,0,0,1,2.33-5.94A12.16,12.16,0,0,1,99.71,63.7Z"/></g><g class="cls-28"><path class="cls-29" d="M97.93,65.94a16.64,16.64,0,0,0,3.41,6.1,13.4,13.4,0,0,0,5.14,3.68,13.54,13.54,0,0,0,6.27.78,16.61,16.61,0,0,0,6.65-2.17,10.19,10.19,0,0,1-6,5A12,12,0,0,1,99,73.66,10.19,10.19,0,0,1,97.93,65.94Z"/></g><path class="cls-27" d="M67.63,170.54a23.5,23.5,0,0,1-5.19-8.07A36.9,36.9,0,0,1,59.92,153a26.13,26.13,0,0,1,.64-10,16.9,16.9,0,0,1,5.81-8.7L66,137.09a14.09,14.09,0,0,1-1.7-2.57,13.5,13.5,0,0,1-1.12-2.86,10.62,10.62,0,0,1,.23-6.51,11.6,11.6,0,0,1,3.9-5.14,19.46,19.46,0,0,1,5.17-2.83L71.69,121a9.1,9.1,0,0,1-.73-.87c-.2-.27-.39-.55-.58-.83a19.28,19.28,0,0,1-1-1.7A19.89,19.89,0,0,1,68,114a21.05,21.05,0,0,1-.77-7.59,25.81,25.81,0,0,1,1.67-7.24,34.64,34.64,0,0,1,3.36-6.42l.08-.11A17.49,17.49,0,0,1,75,89.89a15,15,0,0,1,3.26-2,12.52,12.52,0,0,1,3.66-1,9.51,9.51,0,0,1,3.69.31,10.15,10.15,0,0,0-3.53.47A11.68,11.68,0,0,0,79,89.16a14.07,14.07,0,0,0-2.58,2.22,20.12,20.12,0,0,0-2.07,2.72l.08-.11A32.06,32.06,0,0,0,72,100.17a22.82,22.82,0,0,0-.94,6.35,19,19,0,0,0,1,6.11,17.94,17.94,0,0,0,1.27,2.78,13.54,13.54,0,0,0,.81,1.26c.14.2.29.4.44.58s.34.39.4.45L77.48,120l-3.26,1.44a18.21,18.21,0,0,0-3.93,2.33,7.51,7.51,0,0,0-2.43,3.06,6.68,6.68,0,0,0-.34,3.8,12,12,0,0,0,.59,2.1,17.07,17.07,0,0,0,.93,2l1,1.79-1.41,1a13.48,13.48,0,0,0-5,6.6,23.25,23.25,0,0,0-1.31,8.81,37.22,37.22,0,0,0,1.4,9.14,31.86,31.86,0,0,0,1.55,4.43A18.75,18.75,0,0,0,67.63,170.54Z"/><path class="cls-27" d="M149.26,48.15a8,8,0,0,1,.07-5.37A9.53,9.53,0,0,1,153,38.27a11.78,11.78,0,0,1,5.57-2,13.37,13.37,0,0,1,5.86.86,15.67,15.67,0,0,1,8.13,7.66,19.51,19.51,0,0,1,1.92,10.27,50.56,50.56,0,0,0-5.15-8.24,15.94,15.94,0,0,0-6.66-5.17,10.64,10.64,0,0,0-3.89-.82,10.3,10.3,0,0,0-3.94.72,9,9,0,0,0-3.42,2.34A9.41,9.41,0,0,0,149.26,48.15Z"/><path class="cls-27" d="M82.42,87.19a26,26,0,0,1-2.92-6.27,23.41,23.41,0,0,1-1-7,25.63,25.63,0,0,1,1-7.1,28,28,0,0,1,3-6.61A28.73,28.73,0,0,1,93,50.17a27.57,27.57,0,0,1,6.88-2.75,26.78,26.78,0,0,1,7.42-.75,25.35,25.35,0,0,1,7.32,1.38l.4.13h0l0,0s0,.05.05,0l0,0,0,0,.09-.28c.08-.31.23-.61.34-.91a17.44,17.44,0,0,1,4.32-6.39,17.94,17.94,0,0,1,6.53-3.88,19,19,0,0,1,7.37-1,18.17,18.17,0,0,1,7.08,1.85,16.45,16.45,0,0,1,8.73,10.64,16.58,16.58,0,0,0-9.64-8.46,17.31,17.31,0,0,0-12.18.51,14.14,14.14,0,0,0-7.93,8.33,5.24,5.24,0,0,0-.24.7l-.14.53a5.69,5.69,0,0,0-.2.79c-.21,1.17-.45,2.21-.67,3.33l-.09.41,0,.21,0,.1-.1,0-.78-.31-1.56-.63L114.36,53c-.28-.1-.5-.21-.85-.31l-.41-.13a21.9,21.9,0,0,0-6-1.06,23.73,23.73,0,0,0-6.11.53,24.9,24.9,0,0,0-5.81,2.14,26.89,26.89,0,0,0-9.47,8.15,27.28,27.28,0,0,0-3.14,5.55,25.25,25.25,0,0,0-1.69,6.21,24.41,24.41,0,0,0-.06,6.56A29.19,29.19,0,0,0,82.42,87.19Z"/><path class="cls-38" d="M302.54,228.8a19.27,19.27,0,0,0-.15-13.35,20.43,20.43,0,0,0-3.15-5.77c-.36-.41-.7-.83-1.07-1.22a15.9,15.9,0,0,0-1.81-1.59c-1.13-.6-2.22-1.19-3.46-1.83l-4.71-2.13a6.75,6.75,0,0,1,.66-.37,2.9,2.9,0,0,1,.85-.14l1.1-.12,4.57-.49c1.54-.16,3.18-.37,4.64-.61.87-.16,1.73-.34,2.58-.55a21,21,0,0,0,9-4.3,13.2,13.2,0,0,0,3-3.61,11.56,11.56,0,0,0,.85-2.07,8.6,8.6,0,0,0-.74-6.24l-.26-.45-.29-.42a4.16,4.16,0,0,0-.32-.39l-.15-.17-.25-.25c-.19-.15-.44-.29-.65-.43l-.67-.43a4,4,0,0,0-.76-.42l-1.85-.86-3.66-1.68,5-1.62,1.35-.44.67-.22.49-.24,1-.47.49-.24a2.63,2.63,0,0,0,.41-.22,13.19,13.19,0,0,0,3-2.7,13.84,13.84,0,0,0,3.19-7.41,11.72,11.72,0,0,0-1.92-7.62,14.48,14.48,0,0,0-6.33-5.21,7.15,7.15,0,0,0-1-.37l-.45-.15a5,5,0,0,0-.58-.12l-1.27-.14-1.27-.14-.32,0-.46,0-.92.06-3.73.25-7,.49c-.7,0-.48,0-.59,0l-.08,0h0s0,0,0,0h-.25l-1.94.1-1.42.09-2.85.19,13.95-4.36c1.14-.36,1.4-.45,1.93-.63l1.45-.49,1.44-.49a.38.38,0,0,0,.21-.11l.14-.11.29-.21c.36-.28.77-.55,1.09-.84a5.72,5.72,0,0,0,.4-.46l.2-.26a9.51,9.51,0,0,0,1.89-5.21,10.29,10.29,0,0,0-.84-4.51,14.37,14.37,0,0,0-2.61-4.11,22.36,22.36,0,0,0-8.41-5.71,77.82,77.82,0,0,0-10.16-3.16A63.93,63.93,0,0,1,300.48,124a23.11,23.11,0,0,1,9.75,5.27,15,15,0,0,1,5,10.44,13.14,13.14,0,0,1-1.37,6,12.25,12.25,0,0,1-.78,1.36l-.2.28,0,.06-.08.12a1.34,1.34,0,0,1-.33.34.67.67,0,0,1-.14.09l-.06,0s-.08,0,0,0a3.24,3.24,0,0,1,.5-.05,1.63,1.63,0,0,1,.39,0h.1l.14,0a11.85,11.85,0,0,1,1.31.44,18.72,18.72,0,0,1,8.6,6.68,16.4,16.4,0,0,1,2.89,10.74A18.54,18.54,0,0,1,322,176a18.27,18.27,0,0,1-4.15,3.68,2.57,2.57,0,0,1-.4.22h-.05l0,0h0s0,0,0,0l.08.09c.18.23.38.45.54.69l.48.72.42.75a13.25,13.25,0,0,1,1.46,6.49c-.15,4.65-2.84,8.49-6,11a21.35,21.35,0,0,1-5.26,3,28.68,28.68,0,0,1-5.67,1.62c-.95.18-1.9.32-2.84.43-.36,0-.57,0-.91,0h-1.37c-.08,0-.29,0-.16,0l.34.19.47.34.48.49c.19.22.22.29.74.87s.74,1,1.1,1.51a21.5,21.5,0,0,1,2.84,6.71A19.28,19.28,0,0,1,302.54,228.8Z"/><path class="cls-27" d="M316.52,137.52a41.08,41.08,0,0,0-.06-7,27.1,27.1,0,0,0-1.59-6.63,23.24,23.24,0,0,0-8-10.31,38,38,0,0,0-12-5.71c-1.2-.33-1.73-.5-4.23-1-1.15-.23-2.37-.43-3.57-.64l-.9-.15-.44-.07c0-.09.14-.24.2-.35l1-1.46,1-1.47c.34-.5.75-1,1-1.53l.6-1.11a3.93,3.93,0,0,0,.31-.7c.17-.49.41-.94.54-1.44l.41-1.49a19.92,19.92,0,0,0-1.26-12.29,16.47,16.47,0,0,0-8.68-8.56A20.41,20.41,0,0,0,268,75.09a19.92,19.92,0,0,0-11,7.81,19.26,19.26,0,0,1,10.18-10,21.81,21.81,0,0,1,14.92-.9,19.08,19.08,0,0,1,6.8,3.92,21,21,0,0,1,4.74,6.27,23.77,23.77,0,0,1,1.85,15.32c-.16.64-.36,1.28-.54,1.91a18.55,18.55,0,0,1-.73,1.87,7.3,7.3,0,0,1-.41.9l-.23.41,0,0,0,0c-.05,0,0,0,0,.06-.17,0,1.55.44,2.62.79a38.23,38.23,0,0,1,13,7.11,24.25,24.25,0,0,1,7.89,12.57,25.38,25.38,0,0,1,.65,7.29A35.25,35.25,0,0,1,316.52,137.52Z"/><path class="cls-27" d="M172.43,44.93a19,19,0,0,1,9.23-2,23.24,23.24,0,0,1,9.45,2.35A23.65,23.65,0,0,1,199,51.38l.81,1c.13.17.24.36.36.53s.05.09.07.11l0,0,.16.15c.07,0,.09.16.09-.07V53s0,0,0-.11a2.82,2.82,0,0,1,.37-.61,16.07,16.07,0,0,1,4.22-4.36,15.5,15.5,0,0,1,6.39-2.65,15.22,15.22,0,0,1,6.92.45A18.11,18.11,0,0,1,230.9,66.34a21,21,0,0,1-5.42,10.82,23.13,23.13,0,0,0,3.07-11,16.85,16.85,0,0,0-3-10.21,16.56,16.56,0,0,0-3.71-3.67,14.48,14.48,0,0,0-4.6-2.14,11.08,11.08,0,0,0-4.85-.18,11.2,11.2,0,0,0-4.45,1.94,11.76,11.76,0,0,0-3,3,11.89,11.89,0,0,0-.88,1.74l-.26.54c-.06.24-.1.61-.15.91l-.3,1.88-.07.47c0,.16,0,.29-.07.56L203,62.39l-.24,2.82-.51,6L199,61l-.92-2.84-.5-1.1-.24-.54c-.09-.17-.18-.31-.27-.46l-.75-1.29-.61-.85a23.13,23.13,0,0,0-23.28-9Z"/><path class="cls-27" d="M228.7,59.69a12.16,12.16,0,0,1,3.41-5.1,15.12,15.12,0,0,1,5.58-3.12A15,15,0,0,1,257.35,64.3a14.87,14.87,0,0,1-.62,6.37,11.93,11.93,0,0,1-3.3,5.17,16.79,16.79,0,0,0,.18-10.79,13.37,13.37,0,0,0-15.1-9.87A16.79,16.79,0,0,0,228.7,59.69Z"/><path class="cls-27" d="M258.37,72.6A23,23,0,0,0,257.85,62a23.72,23.72,0,0,0-1.92-4.68l-.16-.27-.07-.14-.14-.26a6.22,6.22,0,0,0-.32-.56,4.46,4.46,0,0,0-.39-.57L253,53.16l-.12-.15-.26-.23-.52-.46-1-.92L249,49.52l-1.11-1-1.57-1.34-3.17-2.72,1.45.36.62.13,1.21.27c.2,0,.21,0,.33,0l.15,0,.7.19,3.32.9c1,.29,2,.55,3.1.88l3,1,3.25,1.53a15.75,15.75,0,0,1,1.61.86l1,.64a19,19,0,0,1,1.66,1.16A32.45,32.45,0,0,1,270.29,58a28.5,28.5,0,0,1,6.16,14.37,45.55,45.55,0,0,0-9-11.79,42.42,42.42,0,0,0-5.63-4.42c-.5-.32-1-.66-1.51-.94L260,55l-.19-.11c-.07,0,0,0-.05,0h0s0,0,0,.05-.32-.26-.35-.22,0,0,0,.11a.86.86,0,0,0,0,.15v.1s0,0,0,.06l.07.17.15.35a21.45,21.45,0,0,1,1.36,5.81A18.2,18.2,0,0,1,258.37,72.6Z"/><path class="cls-38" d="M315.25,138.44a95.83,95.83,0,0,1,7.4-11l1-1.3,1.94-2.3c.34-.39.7-.83,1-1.18l1-1,1-1,.51-.51.07-.06s0,0,0,0l.06.17.14.33,1.07,2.75c.33.94.62,1.89.93,2.84a12.61,12.61,0,0,1,.43,1.47l.18,1.29a13,13,0,0,1,.15,1.86,21.41,21.41,0,0,1-4.59,13.55,18.56,18.56,0,0,1-5.35,4.65,16.05,16.05,0,0,1-6.56,2,22.51,22.51,0,0,0,8.66-8.87,21.92,21.92,0,0,0,2.18-5.49,18.68,18.68,0,0,0,.66-5.73,7.47,7.47,0,0,0-.08-1.42l0-.3v-.06a.62.62,0,0,0,0-.25c0-.11-.06-.08-.17-.07l-.1,0-.06,0h0l-.08.07-1.2,1.13A95.72,95.72,0,0,1,315.25,138.44Z"/><path class="cls-39" d="M209.87,216.61l5.91-1.89L187.69,210l12.11-1.89-36.21-4.75-.65,2.56-3.05-12.21s.87,13.27.64,18.18a44.35,44.35,0,0,1-5.49-16.6c-1.42-10.92,1.42,17.09,1.42,17.09l-7-15.19,3.2,16.14-8.88-12.81,3.53,7.53c1.17,4.66,3.63,14.33,3.46,14.39,5.58-3.08,22.61-4.09,25.77-4.25l51.61,12.71Z"/><path class="cls-39" d="M114.65,205.4l4.75-9.19-7.64,7.11,1-14.24-2.87,9.49-6-6.65,2.65,6.65L77.42,185.76l-9-.16c0,.05,0,.1,0,.15a40.9,40.9,0,0,1,1.39,11.67l7.34,4.48a45.86,45.86,0,0,0-4.24-5.61c4.3,2.22,15.66,7.3,16.1,7.5l-3.78-5,16.84,8.39,0,0,10.06,7.08,12.72-18.87Z"/><path class="cls-40" d="M193.73,239.24c0,5.34-4.71,9.66-10.52,9.66s-10.52-4.32-10.52-9.66A9.66,9.66,0,0,1,179,230.4c3.69,1,8.85,2.65,13.42,4.21A8.9,8.9,0,0,1,193.73,239.24Z"/><circle cx="183.4" cy="239.62" r="7.14"/><path class="cls-40" d="M106.91,221.44a8.31,8.31,0,0,1-2.67,6.05A38.05,38.05,0,0,1,93,229.14a8.38,8.38,0,0,1-.06-15.34l1.36.51c2.23.84,4.62,1.8,6.86,2.79,1.15.5,2.27,1,3.3,1.48.83.4,1.6.78,2.3,1.14A8.23,8.23,0,0,1,106.91,221.44Z"/><path d="M104.73,220.63a7.14,7.14,0,1,1-10.46-6.32c2.23.84,4.62,1.8,6.86,2.79,1.15.5,2.27,1,3.3,1.48A7,7,0,0,1,104.73,220.63Z"/><circle class="cls-41" cx="100.95" cy="223.24" r="2.69"/><path d="M210.07,244.86c-1.36-.91-2.68-1.87-4-2.83s-2.61-1.95-3.88-3l.34.2c-4.23-1.11-8.39-2.41-12.55-3.69s-8.33-2.61-12.42-3.71a21.71,21.71,0,0,0-2.85-.59c-.07,0-.16,0-.13,0l-.06,0-.13,0-.28.06-.34.12c-.46.16-1,.35-1.45.55-2,.8-4,1.65-5.95,2.54-4,1.73-8,3.5-12.15,5a123.15,123.15,0,0,1,11-7.33c1.91-1.1,3.8-2.22,5.83-3.2.5-.25,1-.5,1.57-.72l.42-.18.52-.16.25-.08a2.14,2.14,0,0,1,.34-.07,4.86,4.86,0,0,1,.7-.05,18.81,18.81,0,0,1,3.58.56,120.91,120.91,0,0,1,12.66,3.93c2.07.75,4.1,1.56,6.13,2.4s4.06,1.68,6.06,2.58l.25.11.09.1c1.13,1.17,2.21,2.39,3.3,3.6S209,243.58,210.07,244.86Z"/><path d="M67.63,216.86A86.14,86.14,0,0,1,78,212.11a45.77,45.77,0,0,1,5.54-1.7,14.11,14.11,0,0,1,1.54-.26,6.5,6.5,0,0,1,1.83,0,20.57,20.57,0,0,1,2.95.7A92.46,92.46,0,0,1,100.48,215l1.3.57,1.28.66c.85.44,1.7.87,2.53,1.34a23.7,23.7,0,0,1,5,3.23l.17.16,0,.11a9.31,9.31,0,0,1,.43,1.13c.12.34.23.69.33,1l.59,2.09c.37,1.4.72,2.81,1,4.24-.76-1.25-1.46-2.51-2.16-3.77l-1-1.89c-.34-.6-.69-1.33-1-1.76l.22.27a32.47,32.47,0,0,0-4.87-2.21c-.86-.33-1.71-.69-2.57-1l-1.27-.53-1.31-.48c-3.49-1.26-6.91-2.74-10.37-3.87a22,22,0,0,0-2.49-.73,3.85,3.85,0,0,0-.47-.08,2.87,2.87,0,0,0-.51,0c-.39,0-.81.05-1.24.11-1.74.24-3.58.58-5.38,1C75,215.31,71.4,216.28,67.63,216.86Z"/><path class="cls-42" d="M135.81,290.44a27.64,27.64,0,0,0,5.52.87,11,11,0,0,0,5-.75c2.88-1.27,4-4.43,4.37-7.94a9.46,9.46,0,0,0-.44-4.7,12.57,12.57,0,0,0-2.62-4.17,15.69,15.69,0,0,0-4.18-3.12,13.53,13.53,0,0,0-5.26-1.55,10.54,10.54,0,0,1,5.87-.13,14.31,14.31,0,0,1,5.47,2.7,13,13,0,0,1,3.92,5c.2.51.37,1,.55,1.55s.23,1.08.33,1.62a15.2,15.2,0,0,1,.09,1.65,12.2,12.2,0,0,1-.12,1.61,15.18,15.18,0,0,1-1.83,6,8.65,8.65,0,0,1-5.21,4.15,11.28,11.28,0,0,1-6.22-.17A16.22,16.22,0,0,1,135.81,290.44Z"/><path class="cls-42" d="M113.74,287.12a7.26,7.26,0,0,1,1.82-4.05,8.67,8.67,0,0,1,4-2.52,12.11,12.11,0,0,1,4.69-.41,17.21,17.21,0,0,1,4.43,1.07c2.71,1,5.12,2.19,7.62,3.11a33.16,33.16,0,0,0,3.82,1.19,30.52,30.52,0,0,0,4.1.66,12.61,12.61,0,0,1-4.22,1.12,17.68,17.68,0,0,1-4.42-.2,44.19,44.19,0,0,1-8.14-2.46,20.32,20.32,0,0,0-3.64-1.07,12.1,12.1,0,0,0-3.63-.22A8.91,8.91,0,0,0,113.74,287.12Z"/><path class="cls-42" d="M87.85,274.51c1.53.22,2.94.57,4.32.84a11.29,11.29,0,0,0,3.73.32l.32-.1a4.89,4.89,0,0,1,.64-.14,2.39,2.39,0,0,1,.6.05,3.13,3.13,0,0,1,1.43.81,15.14,15.14,0,0,1,1.52,1.72,7.4,7.4,0,0,0,3.11,2.68,3.53,3.53,0,0,1-2.37-.12,8.1,8.1,0,0,1-2.07-1.19c-.61-.45-1.16-1-1.64-1.31a.93.93,0,0,0-.46-.24H97a.1.1,0,0,0,.1,0l-.72.24a6.39,6.39,0,0,1-2.64-.1,11.45,11.45,0,0,1-2.22-.79A13.08,13.08,0,0,1,87.85,274.51Z"/><path class="cls-42" d="M98.3,260.87a19,19,0,0,0-8.2,3.58,9.58,9.58,0,0,0-3.31,7,16.63,16.63,0,0,0,0,2.12,9.79,9.79,0,0,0,.07,1.08l0,.53a1.59,1.59,0,0,1,.06.3,6.92,6.92,0,0,0,2.24,2.92A22.68,22.68,0,0,0,92.84,281a18.69,18.69,0,0,0,4.27,1.88,11.38,11.38,0,0,1-4.92-.21,17.75,17.75,0,0,1-4.68-1.89c-.37-.22-.73-.49-1.1-.73s-.71-.56-1-.9a7,7,0,0,1-1.7-2.53c-.09-.28-.17-.56-.24-.85s-.07-.43-.1-.64c0-.43-.13-.85-.15-1.28a18.92,18.92,0,0,1,0-2.61A12.76,12.76,0,0,1,84.65,266a10.37,10.37,0,0,1,3.83-3.89A13.23,13.23,0,0,1,98.3,260.87Z"/><path class="cls-42" d="M108,257.46a18.61,18.61,0,0,0-6.89,4.18,10,10,0,0,0-2.06,3.12,8.34,8.34,0,0,0-.51,1.77l-.18.92,0,.95c0,.31,0,.63,0,.94l.1,1c0,.31,0,.64.09.94s.16.59.23.89a14.4,14.4,0,0,0,1.66,3.48,30.1,30.1,0,0,0,5.47,6.1,17.14,17.14,0,0,1-7-5,13.83,13.83,0,0,1-2.32-3.87c-.13-.37-.24-.75-.35-1.13s-.11-.75-.17-1.13l-.13-1.14a11,11,0,0,1,0-1.15l.06-1.15.23-1.14a9.8,9.8,0,0,1,.76-2.21,10.4,10.4,0,0,1,2.89-3.57A13.2,13.2,0,0,1,108,257.46Z"/><path class="cls-42" d="M105.87,271.34a45,45,0,0,0,.83,5.56,18.55,18.55,0,0,0,1.72,4.85,9.78,9.78,0,0,0,3.12,3.44,13.25,13.25,0,0,0,4.52,1.79l.12,0c.34.07.69.18,1,.25s.71.14,1.06.16a9.92,9.92,0,0,0,2.18,0,10.43,10.43,0,0,0,4.43-1.5,6.74,6.74,0,0,1-1.6,2.05,8.83,8.83,0,0,1-2.29,1.43,9.08,9.08,0,0,1-2.67.7,11.16,11.16,0,0,1-2.77,0l.11,0a12.54,12.54,0,0,1-6.11-1.88,10.84,10.84,0,0,1-4.17-5.05,14.22,14.22,0,0,1-1-6.11A15.32,15.32,0,0,1,105.87,271.34Z"/><path class="cls-42" d="M266.13,261.19a74.62,74.62,0,0,1,6.88-8.95c1.24-1.42,2.53-2.8,3.89-4.12s2.73-2.64,4.2-3.85a40.34,40.34,0,0,1,9.75-6.32,17.21,17.21,0,0,1,6-1.51,9.5,9.5,0,0,1,6.39,2l-.49-.27a2.88,2.88,0,0,1,1.46,1.3,5.71,5.71,0,0,1,.48,1,13.9,13.9,0,0,1,.52,1.81c.26,1.16.44,2.28.58,3.41.25,2.26.42,4.49.5,6.72s.1,4.46.05,6.69-.15,4.45-.34,6.68c-.38-2.2-.74-4.4-1.06-6.59l-1-6.55c-.35-2.17-.68-4.35-1.13-6.46-.21-1.06-.43-2.11-.72-3.1a10.24,10.24,0,0,0-.48-1.36,2.1,2.1,0,0,0-.24-.46c-.06-.14-.13,0,.3.15l-.5-.27c-2.33-1.72-5.74-1.18-8.91.16a33.28,33.28,0,0,0-4.68,2.46c-1.54.93-3,1.95-4.51,3-2.94,2.16-5.78,4.52-8.59,6.94S268.91,258.65,266.13,261.19Z"/><path class="cls-42" d="M288.47,239.07a1.92,1.92,0,0,1,1.2-.18,2,2,0,0,1,.46.15l.12.06a2.74,2.74,0,0,1,.41.3l.24.26.22.31c.11.18.2.32.28.47s.3.56.44.83c.27.54.52,1.08.76,1.61.48,1.07.92,2.15,1.34,3.23.85,2.16,1.6,4.35,2.27,6.57a61.69,61.69,0,0,1,1.66,6.79,36.21,36.21,0,0,1,.66,7.1,18.1,18.1,0,0,1-.43,3.69,12.18,12.18,0,0,1-.6,1.86,8.31,8.31,0,0,1-.95,1.72,26.8,26.8,0,0,1-4.74,5.37,42.64,42.64,0,0,1-12,7.28l.62-1.46a53.62,53.62,0,0,1,2.64,9.05,16.93,16.93,0,0,1,.3,4.85,5.44,5.44,0,0,1-.87,2.55,3.36,3.36,0,0,1-.51.56,4.48,4.48,0,0,1-.64.43,3.86,3.86,0,0,1-1.41.33c-3.42-.16-6.26-1.52-9-3a46.41,46.41,0,0,1-7.59-5.33,58,58,0,0,0,8,4.56,32.13,32.13,0,0,0,4.24,1.62c.73.18,1.45.39,2.18.5a7.92,7.92,0,0,0,1.09.14,4.55,4.55,0,0,0,1,.05,1.63,1.63,0,0,0,1.36-.77,3.93,3.93,0,0,0,.48-1.81,17.07,17.07,0,0,0-.47-4.32,52.17,52.17,0,0,0-2.84-8.57l-.41-1,1-.46a40.18,40.18,0,0,0,11-7.21,25.39,25.39,0,0,0,4.11-5,10,10,0,0,0,1.34-5.73A46.55,46.55,0,0,0,293,253.69q-1-3.18-2.28-6.27c-.43-1-.87-2-1.33-3-.23-.49-.47-1-.72-1.46-.12-.23-.24-.46-.36-.66l-.16-.26,0,0,.09.1a1.77,1.77,0,0,0,.33.24l.1.05a1.87,1.87,0,0,0,.43.13,1.67,1.67,0,0,0,1.14-.18Z"/><path class="cls-42" d="M263.36,266a34.15,34.15,0,0,1,5.6,3,10.75,10.75,0,0,1,2.55,2.24,2.77,2.77,0,0,1,.49,1,1.88,1.88,0,0,1,0,.82,1.24,1.24,0,0,1-.15.42l-.12.2,0,.08c-.08.17-.16.33-.25.57s-.18.43-.26.67c-.65,1.88-1.23,3.88-1.78,5.87s-1.12,4-1.64,6l-1.93-2.14a31.42,31.42,0,0,0,3.33-1.09c.56-.22,1.1-.48,1.66-.7l1.62-.79a32.1,32.1,0,0,0,5.95-4,12.73,12.73,0,0,0,1.33-1.21c.42-.42.88-.81,1.28-1.25a26.35,26.35,0,0,0,2.26-2.8c.34-.5.73-1,1-1.48l.93-1.56c.63-1,1-2.19,1.61-3.28l.18-.35,0,0a.76.76,0,0,0,.3-.61,2.49,2.49,0,0,0-.34-1.09,11.73,11.73,0,0,0-1.87-2.36,48.28,48.28,0,0,0-5-4.17,26.32,26.32,0,0,1,3,1.36,22.23,22.23,0,0,1,2.87,1.72,11.11,11.11,0,0,1,2.59,2.38,4.39,4.39,0,0,1,.87,1.91,3.09,3.09,0,0,1-.63,2.43l.22-.39a30.14,30.14,0,0,1-3.23,7.28,27.23,27.23,0,0,1-5.15,6.17,30.31,30.31,0,0,1-6.63,4.56l-1.82.86c-.62.25-1.24.51-1.87.74a24.79,24.79,0,0,1-4,1.09l-2.82.52.88-2.66c.67-2,1.32-4,2.07-5.95a60.69,60.69,0,0,1,2.49-5.87c.12-.24.25-.49.4-.74a8.62,8.62,0,0,1,.51-.79l.07-.09,0,0s0,.05,0,.07,0,.05,0,0a1,1,0,0,0-.12-.38,10.16,10.16,0,0,0-1.82-2.19C266.62,268.64,265,267.32,263.36,266Z"/><line class="cls-43" x1="140.51" y1="202.03" x2="149.1" y2="217.2"/><line class="cls-43" x1="137.64" y1="202.05" x2="144.84" y2="216.33"/><line class="cls-43" x1="135.49" y1="201.07" x2="145.05" y2="219.39"/><line class="cls-43" x1="112.32" y1="209.67" x2="120.64" y2="197.06"/><line class="cls-43" x1="113.26" y1="210.97" x2="124.86" y2="197.53"/><line class="cls-43" x1="115.39" y1="210.52" x2="126.79" y2="198.5"/><line class="cls-43" x1="114.68" y1="211.39" x2="127.08" y2="199.73"/><line class="cls-43" x1="135.44" y1="203.94" x2="144.12" y2="220.64"/><line class="cls-43" x1="160.3" y1="210.94" x2="157.48" y2="197.64"/><line class="cls-43" x1="162.23" y1="211.56" x2="160.3" y2="197.01"/><line class="cls-43" x1="163.49" y1="196.99" x2="162.84" y2="212.5"/><path d="M162.59,239.83a45.7,45.7,0,0,0,10.3,5.69A33,33,0,0,0,184.18,248a22.43,22.43,0,0,0,10.91-2.41,26.73,26.73,0,0,0,8.5-7.13l2.75,2.39A30,30,0,0,1,196.23,248a24.65,24.65,0,0,1-12.17,1.74,34.54,34.54,0,0,1-11.54-3.42A46.46,46.46,0,0,1,162.59,239.83Z"/><path d="M106.35,226.84a47.1,47.1,0,0,1-9.46,2.58,25.64,25.64,0,0,1-5,.32,22.51,22.51,0,0,1-5-.61A18.07,18.07,0,0,1,78,224a21,21,0,0,1-3-4.3,22.68,22.68,0,0,1-1.08-2.41,17.89,17.89,0,0,1-.78-2.64l3.61-.5a13.84,13.84,0,0,0,.41,2.08c.2.72.45,1.42.72,2.12a18.25,18.25,0,0,0,2.23,3.88,15.77,15.77,0,0,0,7.32,5.19,21.23,21.23,0,0,0,4.58,1,24.59,24.59,0,0,0,4.78.14A46.77,46.77,0,0,0,106.35,226.84Z"/><g class="cls-44"><path class="cls-43" d="M69.88,195a29.32,29.32,0,0,1,6.55-8.72"/></g><g class="cls-44"><line class="cls-43" x1="70.32" y1="194.88" x2="81.11" y2="185.42"/></g><g class="cls-44"><line class="cls-43" x1="71.03" y1="195.29" x2="82.7" y2="186.86"/></g><g class="cls-44"><line class="cls-43" x1="74.16" y1="194.94" x2="83.49" y2="188.11"/></g><g class="cls-44"><line class="cls-43" x1="76.18" y1="194.88" x2="84.56" y2="188.38"/></g><g class="cls-44"><line class="cls-43" x1="76.76" y1="196.25" x2="86.57" y2="187.86"/></g><g class="cls-44"><line class="cls-43" x1="79.04" y1="196" x2="89" y2="188.39"/></g><g class="cls-44"><line class="cls-43" x1="79.75" y1="196.67" x2="89.25" y2="190.03"/></g><g class="cls-44"><line class="cls-43" x1="80.09" y1="198.14" x2="88.64" y2="191.35"/></g><g class="cls-44"><line class="cls-43" x1="82.98" y1="197.57" x2="92.8" y2="189.5"/></g><g class="cls-44"><line class="cls-43" x1="83.17" y1="198.71" x2="94.21" y2="190.28"/></g><g class="cls-44"><line class="cls-43" x1="88.38" y1="197.11" x2="95.16" y2="191.86"/></g><g class="cls-44"><line class="cls-43" x1="88.54" y1="199.03" x2="94.98" y2="193.27"/></g><g class="cls-44"><line class="cls-43" x1="88.04" y1="201.04" x2="97.06" y2="193.76"/></g><g class="cls-44"><line class="cls-43" x1="90.76" y1="201.56" x2="97.56" y2="195.7"/></g><g class="cls-44"><line class="cls-43" x1="96.09" y1="200.42" x2="99.34" y2="195.63"/></g><g class="cls-44"><line class="cls-43" x1="96.14" y1="202.99" x2="100.89" y2="197.13"/></g><g class="cls-44"><line class="cls-43" x1="97.74" y1="202.68" x2="102.17" y2="196.99"/></g><g class="cls-44"><line class="cls-43" x1="103.38" y1="198.08" x2="100.95" y2="205.34"/></g><g class="cls-44"><line class="cls-43" x1="104.7" y1="197.31" x2="103" y2="205.86"/></g><g class="cls-44"><line class="cls-43" x1="105.49" y1="197.15" x2="104.4" y2="205.85"/></g><g class="cls-44"><path class="cls-43" d="M105.52,197.79a40.79,40.79,0,0,0-2,11.38"/></g><g class="cls-44"><line class="cls-43" x1="106.43" y1="199.52" x2="105.23" y2="211.21"/></g><g class="cls-44"><line class="cls-43" x1="107.4" y1="200" x2="106.77" y2="209.65"/></g><g class="cls-44"><line class="cls-43" x1="108.34" y1="200" x2="107.99" y2="210.44"/></g><g class="cls-44"><line class="cls-43" x1="110.17" y1="201.26" x2="109.26" y2="211.53"/></g><g class="cls-44"><path class="cls-43" d="M111.71,202.53a31.44,31.44,0,0,1-1.48,10.76"/></g><g class="cls-44"><line class="cls-43" x1="148.5" y1="205.71" x2="153.74" y2="221.53"/></g><g class="cls-44"><path class="cls-43" d="M148.92,205.09a56.81,56.81,0,0,0,5.33,14.21"/></g><g class="cls-44"><line class="cls-43" x1="152.89" y1="203.5" x2="156.33" y2="220.63"/></g><g class="cls-44"><path class="cls-43" d="M153.8,202.21A83.55,83.55,0,0,0,158,218.38"/></g><g class="cls-44"><path class="cls-43" d="M154.72,201.7l2.25,8.71,1.13,4.35a8.33,8.33,0,0,0,1.91,4"/></g><g class="cls-44"><path class="cls-43" d="M156.88,201.4a66.63,66.63,0,0,0,4.31,14.5"/></g><g class="cls-44"><line class="cls-43" x1="158.78" y1="200.33" x2="162.59" y2="216.66"/></g><g class="cls-44"><line class="cls-43" x1="160.05" y1="200.96" x2="164.17" y2="217.14"/></g><g class="cls-44"><path class="cls-43" d="M166.2,219.48a44.16,44.16,0,0,1-.75-16.48"/></g><g class="cls-44"><line class="cls-43" x1="166.7" y1="218.83" x2="167.92" y2="205.69"/></g><g class="cls-44"><line class="cls-43" x1="168.28" y1="219.45" x2="171.93" y2="206"/></g><g class="cls-44"><line class="cls-43" x1="169.55" y1="217.23" x2="174.12" y2="208.04"/></g><g class="cls-44"><line class="cls-43" x1="171.07" y1="217.02" x2="176.4" y2="209.02"/></g><g class="cls-44"><line class="cls-43" x1="171.7" y1="216.84" x2="179.17" y2="208"/></g><g class="cls-44"><line class="cls-43" x1="171.93" y1="217.36" x2="180.32" y2="209.77"/></g><g class="cls-44"><line class="cls-43" x1="175.22" y1="215.57" x2="184.4" y2="208.61"/></g><g class="cls-44"><line class="cls-43" x1="176.48" y1="217.46" x2="187.39" y2="209.85"/></g><g class="cls-44"><line class="cls-43" x1="179.65" y1="216.78" x2="191.82" y2="210.75"/></g><g class="cls-44"><line class="cls-43" x1="179.32" y1="218.82" x2="196.85" y2="209.57"/></g><g class="cls-44"><line class="cls-43" x1="183.88" y1="217.39" x2="201.26" y2="211.9"/></g><g class="cls-44"><line class="cls-43" x1="184.29" y1="219.22" x2="204.55" y2="213.54"/></g><g class="cls-44"><line class="cls-43" x1="186.83" y1="219.57" x2="205.66" y2="215.72"/></g><g class="cls-44"><line class="cls-43" x1="190.78" y1="220.44" x2="210.08" y2="217.39"/></g><g class="cls-44"><line class="cls-43" x1="195.37" y1="221.65" x2="212.63" y2="219.39"/></g><g class="cls-44"><line class="cls-43" x1="199.66" y1="222.72" x2="214.54" y2="222.05"/></g><g class="cls-44"><line class="cls-43" x1="203.47" y1="223.96" x2="218.98" y2="225.44"/></g><g class="cls-44"><line class="cls-43" x1="211.06" y1="225.93" x2="222.93" y2="227.55"/></g><polygon points="70.52 190.76 66.93 218.91 66.89 190.53 70.52 190.76"/><g class="cls-28"><path class="cls-29" d="M225.39,102.83a13.56,13.56,0,0,1,2.72-6.41A14.57,14.57,0,0,1,241.2,90.8a16.33,16.33,0,0,1,7.09,2.44A15.15,15.15,0,0,1,250,94.47l.19.17s0,0,0,0h0v0s0,0,.06,0a9.76,9.76,0,0,1,1.55-.85,10.51,10.51,0,0,1,3.38-.81,9.61,9.61,0,0,1,3.45.43,9.35,9.35,0,0,1,3,1.62,12.78,12.78,0,0,1,3.71,5.1A28.89,28.89,0,0,1,267,105.9a53.05,53.05,0,0,0-3.09-5,12.9,12.9,0,0,0-3.84-3.72,7,7,0,0,0-4.63-1,7.65,7.65,0,0,0-2.25.7,6.94,6.94,0,0,0-1,.6,8.69,8.69,0,0,0-1.1,1l-1.09,1-1.29-1.3c-.22-.21-.44-.45-.66-.65l-.47-.41a13.33,13.33,0,0,0-1.3-.93,13.94,13.94,0,0,0-11.5-1.69A15.77,15.77,0,0,0,225.39,102.83Z"/></g><path class="cls-27" d="M254.9,51.78a18.71,18.71,0,0,1,11.93,23.45A21.89,21.89,0,0,0,254.9,51.78Z"/><path d="M265.82,117.89a26.9,26.9,0,0,0,14.71,1.65,13,13,0,0,0,6.52-3,8.55,8.55,0,0,0,2.85-6.58,7.12,7.12,0,0,1-.17,3.85,9.16,9.16,0,0,1-2,3.4,12.84,12.84,0,0,1-7,3.56A21.13,21.13,0,0,1,265.82,117.89Z"/><path d="M66.2,167a27.83,27.83,0,0,1-3.94-12.22,28.65,28.65,0,0,1,.15-6.48,9.19,9.19,0,0,1,.9-3.17,3.41,3.41,0,0,1,2.52-2,3.39,3.39,0,0,0-2,2.22,10.28,10.28,0,0,0-.49,3,42.6,42.6,0,0,0,.11,6.29A50.13,50.13,0,0,0,66.2,167Z"/><path d="M68.48,164.28a18.88,18.88,0,0,1,.58-23,25.91,25.91,0,0,0-.58,23Z"/><g class="cls-28"><path class="cls-29" d="M98.6,67.65a8.52,8.52,0,0,0,.13,7.73,10.92,10.92,0,0,0,5.78,5.08,19.68,19.68,0,0,0,7.86,1.35c2.71,0,5.45-.39,8.21-.67a41.63,41.63,0,0,1-8.17,1.62A18.22,18.22,0,0,1,104,81.58a11.13,11.13,0,0,1-6.17-5.81,9.37,9.37,0,0,1-.72-4.21A7.21,7.21,0,0,1,98.6,67.65Z"/></g><g class="cls-28"><path class="cls-29" d="M96,69.1a11.68,11.68,0,0,0,1.53,7.78,15.49,15.49,0,0,0,5.51,5.6,22.79,22.79,0,0,0,7.54,2.68,55.14,55.14,0,0,0,8.17.76,32.09,32.09,0,0,1-8.31.18,20.49,20.49,0,0,1-8-2.58,14.85,14.85,0,0,1-5.74-6.2A10.64,10.64,0,0,1,96,69.1Z"/></g><path class="cls-27" d="M152.18,75.08a13,13,0,0,1-2-3.44,6.09,6.09,0,0,1-.1-4.11,4.54,4.54,0,0,1,1.16-1.81,3.28,3.28,0,0,1,2-.89,3.35,3.35,0,0,1,2.06.49A2.33,2.33,0,0,1,156.44,67a2.73,2.73,0,0,0-3.07-1.36,3.2,3.2,0,0,0-2.32,2.26,6.2,6.2,0,0,0-.09,3.55A34.13,34.13,0,0,0,152.18,75.08Z"/><path class="cls-27" d="M139.83,77.69a5.84,5.84,0,0,1,11.35-2.61,6,6,0,0,0-11.35,2.61Z"/><g class="cls-28"><path class="cls-29" d="M94.61,66.6a17.89,17.89,0,0,0,5.85,27.53A16.32,16.32,0,0,1,94.61,66.6Z"/></g><g class="cls-28"><path class="cls-29" d="M204.81,106.55a15.69,15.69,0,0,0,5.51-3.68A13.29,13.29,0,0,0,214,91.18,15.55,15.55,0,0,0,211.61,85a11.22,11.22,0,0,1,3.93,5.81A12.29,12.29,0,0,1,211.36,104,11.17,11.17,0,0,1,204.81,106.55Z"/></g><g class="cls-28"><path class="cls-29" d="M208.54,106.56a16.22,16.22,0,0,0,6.06-3.89,14,14,0,0,0,3.84-12.78,16.19,16.19,0,0,0-2.9-6.58A12,12,0,0,1,220,89.5a13,13,0,0,1-4.32,14.33A12.06,12.06,0,0,1,208.54,106.56Z"/></g><g class="cls-28"><path class="cls-29" d="M210,105.56a8,8,0,0,0,6.87-.85,11.39,11.39,0,0,0,4.28-5.33,21.71,21.71,0,0,0,.71-14.27,16.27,16.27,0,0,1,1.13,15.07,11.48,11.48,0,0,1-5.38,5.91,8.39,8.39,0,0,1-4,.78A6.53,6.53,0,0,1,210,105.56Z"/></g><circle class="cls-41" cx="188.08" cy="243.36" r="2.69"/><path class="cls-6" d="M312.46,266c.73,10.6-26.86,38.91-26.86,38.91-4.7,23.64-20.27,14.64-26.59,9.84a4.3,4.3,0,0,1-.68-2.24s16.74,8.4,27.07-12.9c0,0,38.23-29.42,18-70.35C309.68,233.81,311.75,255.84,312.46,266Z"/><path class="cls-4" d="M123.43,161c0,3.3-5.64,6-12.58,6s-12.59-2.67-12.59-6,5-8.27,12-8.27S123.43,157.75,123.43,161Z"/><path class="cls-4" d="M128.75,149.55c0,1.44-2.46,2.61-5.5,2.61s-5.5-1.17-5.5-2.61,2.19-3.62,5.23-3.62S128.75,148.11,128.75,149.55Z"/></g><g id="Layer_36" data-name="Layer 36"><g class="cls-45"><line class="cls-46" x1="20.47" y1="320.48" x2="50.81" y2="278.28"/><path class="cls-46" d="M16.18,346.61a432,432,0,0,1,44.1-71.55"/><path class="cls-46" d="M21.06,364a402.91,402.91,0,0,1,42.16-88"/><path class="cls-46" d="M23.26,386.62A741.2,741.2,0,0,1,87.21,248"/><path class="cls-46" d="M36.72,403.26A696.41,696.41,0,0,1,89.59,246.61"/><path class="cls-46" d="M37.91,441.79a798.86,798.86,0,0,1,64-205.44"/><path class="cls-46" d="M62.05,439.64a854.5,854.5,0,0,1,56.74-192.28"/><path class="cls-46" d="M84.07,454.31A766.22,766.22,0,0,1,120.6,282.19"/><line class="cls-46" x1="115.21" y1="429.71" x2="133.99" y2="241.42"/><line class="cls-46" x1="143.26" y1="272.79" x2="141.36" y2="469.47"/><line class="cls-46" x1="139.44" y1="269.98" x2="130.3" y2="466.46"/><line class="cls-46" x1="149.87" y1="271.25" x2="147.97" y2="467.92"/><line class="cls-46" x1="153.41" y1="286.79" x2="161.49" y2="449.64"/><path class="cls-46" d="M161.23,297.2a1136.3,1136.3,0,0,1,5.5,137.31"/><path class="cls-46" d="M170.63,317.08a835.21,835.21,0,0,0,27.11,137.73"/><line class="cls-46" x1="177.86" y1="313.17" x2="219.77" y2="434.15"/><line class="cls-46" x1="185.28" y1="312.43" x2="224.1" y2="411.68"/><path class="cls-46" d="M189.37,286.38a735.6,735.6,0,0,0,71.07,115.23"/><line class="cls-46" x1="187.86" y1="301.21" x2="237.42" y2="398.25"/><line class="cls-46" x1="187.37" y1="273.28" x2="272.31" y2="393.93"/><line class="cls-46" x1="204.69" y1="284.17" x2="291.2" y2="362.08"/><path class="cls-46" d="M208.52,282.32A235,235,0,0,0,290,326.8"/><line class="cls-46" x1="205.04" y1="278.62" x2="308.88" y2="307.81"/><path class="cls-46" d="M230.13,278a325.46,325.46,0,0,0,70.42,9.53"/><line class="cls-46" x1="202.28" y1="292.26" x2="274.12" y2="369.58"/><path class="cls-46" d="M98.24,430.32a966.82,966.82,0,0,1,29-173.47"/><path class="cls-46" d="M104.5,435.47c1.14-15,2.77-29.88,4.48-44.79s3.6-29.8,5.57-44.68q5.9-44.64,12.64-89.15"/><path class="cls-46" d="M70.16,424.14a1318.42,1318.42,0,0,1,47.06-155.6"/><path class="cls-46" d="M57.89,405.2A1152.72,1152.72,0,0,1,96.85,255"/><path class="cls-46" d="M62.42,411.1a1152.58,1152.58,0,0,1,39-150.22"/><path class="cls-46" d="M224.05,291.21a365.73,365.73,0,0,0,70.1,30"/></g></g></g></svg>