<svg xmlns:xlink="http://www.w3.org/1999/xlink" xmlns="http://www.w3.org/2000/svg" viewBox="0 0 140 46" class="travis-logo" width="140"  height="46" ><path d="M45.12 16.326a10.136 10.136 0 00-.097-.788 9.435 9.435 0 00-1.365-.934 18.1 18.1 0 00-1.642-.84 32.984 32.984 0 00-1.711-.736c-.288-.117-.579-.23-.871-.339-.291-.114-.585-.219-.88-.327a21.71 21.71 0 011.838.399c.395.102.788.217 1.179.339C38.793 5.842 32.151 1.114 24.9 1.114c-7.252 0-13.893 4.728-16.67 11.988.391-.122.784-.236 1.178-.339a21.514 21.514 0 011.839-.399c-.296.107-.589.213-.881.327-.291.108-.582.222-.871.339-.578.233-1.15.472-1.711.736-.562.256-1.114.532-1.641.84-.486.28-.953.588-1.366.934a10.136 10.136 0 00-.096.788c-.027.309-.038.62-.041.931-.006.622.036 1.244.115 1.86.085.617.198 1.231.366 1.824a10 10 0 00.284.873 7.408 7.408 0 00.27.614l.039.075.139.069.276.132c.154.07.367.171.543.25a.233.233 0 00.028-.026l-.513-1.952c.109-.03 1.082-.281 2.759-.6a8.348 8.348 0 01-1.53-.446 5.07 5.07 0 01-.53-.256 1.81 1.81 0 01-.467-.355c1.843.601 5.651.329 9.036-.021 3.096-.319 6.199-.526 9.318-.532 3.12.006 6.224.213 9.318.532 3.387.35 7.195.622 9.037.021a1.787 1.787 0 01-.467.355c-.17.096-.348.179-.529.256a8.348 8.348 0 01-1.124.359c-.057.014-.114.026-.17.038 1.839.341 2.91.619 3.025.649l-.49 1.86c.099-.044.198-.087.296-.132l.276-.132.139-.069.038-.075a7.292 7.292 0 00.271-.614c.108-.283.202-.576.285-.873.168-.593.281-1.206.366-1.824a13.602 13.602 0 00.076-2.793z" fill="#EAEAEA"></path><path d="M26.991 42.145a9.633 9.633 0 01-.731.086c-.156.008-.322.023-.472.023l-.056.001c.189-.421.332-.748.44-.995.221.248.502.554.819.885zM27.522 42.685a4.281 4.281 0 002.73 1.257 15.076 15.076 0 01-4.632 1.062 11.419 11.419 0 01-3.778-.406 4.24 4.24 0 01.274-.043c.103-.012 2.341-.304 3.35-1.804l.095.002.248-.002c.168 0 .32-.014.48-.02a9.98 9.98 0 001.119-.161c.036.038.074.076.114.115z" fill="#F4F4F4"></path><path d="M29.669 20.221l-.24.308a19.904 19.904 0 01-1.788 1.979 85.224 85.224 0 00-6.866.064c1.906-.791 4.196-1.564 6.676-2.028a25.957 25.957 0 012.218-.323zM18.513 21.075a16.998 16.998 0 00-2.194 1.828 82.575 82.575 0 00-4.946.644c2.111-.97 4.521-1.864 7.14-2.472zM41.828 25.014l-.776 5.431-3.718 2.604-9.697-1.102-1.46-4.807a.318.318 0 00-.254-.223 6.06 6.06 0 00-.942-.088c-.266 0-.583.03-.944.088a.32.32 0 00-.254.223l-1.424 4.69-9.643 2.146-3.821-2.677-.753-6.094c.164-.093.33-.185.499-.277.236-.051.502-.105.797-.161l.71 5.75c.011.09.061.17.134.222l2.629 1.842a.323.323 0 00.252.048l7.928-1.764a.315.315 0 00.235-.218l1.428-4.701c.383-.099 1.364-.328 2.226-.328.86 0 1.842.229 2.225.328l1.428 4.701a.32.32 0 00.27.224l7.928.901a.318.318 0 00.218-.056l2.63-1.841a.32.32 0 00.131-.217l.702-4.913c.529.102.97.194 1.316.269zM42.808 21.608l-.683 2.589c-1.396-.308-4.462-.912-8.636-1.318 1.364-.581 2.752-1.311 4.021-2.222 2.483.351 4.307.727 5.298.951z" fill="#939393"></path><g fill="#E5CBA4"><path d="M14.848 29.709c.541-.292 1.152-.249 2.108-.247.103.003.208.001.319-.001l.289-.005c.985-.01 1.805.084 1.79-1.463-.015-1.547-.702-2.798-1.687-2.788-.985.008-1.939 1.276-1.88 2.822.016.403.075.693.17.903-.859.215-1.096.746-1.109.779zm11.847-6.364c-.382.309-.785.599-1.204.851l-1.398.844c-.877.107-1.638.324-1.681.336a.32.32 0 00-.217.214l-1.424 4.692-7.611 1.693-2.397-1.679-.697-5.65a77.97 77.97 0 015.369-.784c-.234.281-.462.575-.678.884l-1.302 1.869 1.896-1.264c.028-.02 1.235-.814 3.21-1.78a86.38 86.38 0 018.134-.226zM35.029 29.075c-.01-.037-.217-.659-1.133-.55.106-.23.153-.54.119-.966-.121-1.544-1.019-2.771-2.003-2.736-.984.035-1.615 1.314-1.561 2.862.054 1.546.881 1.535 1.865 1.501 1.323-.025 2.05-.431 2.713-.111zm4.858-4.446l-.687 4.804-2.417 1.692-7.601-.864-1.418-4.67a.323.323 0 00-.217-.214 11.711 11.711 0 00-1.986-.369l.182-.012c.158-.011 2.779-.333 5.91-1.412 3.467.266 6.298.693 8.234 1.045z" fill="#E5CBA4"></path></g><g fill="#F4F4F4"><path d="M14.848 29.709c.541-.292 1.152-.249 2.108-.247.103.003.208.001.319-.001l.289-.005c.985-.01 1.805.084 1.79-1.463-.015-1.547-.702-2.798-1.687-2.788-.985.008-1.939 1.276-1.88 2.822.016.403.075.693.17.903-.859.215-1.096.746-1.109.779zm11.847-6.364c-.382.309-.785.599-1.204.851l-1.398.844c-.877.107-1.638.324-1.681.336a.32.32 0 00-.217.214l-1.424 4.692-7.611 1.693-2.397-1.679-.697-5.65a77.97 77.97 0 015.369-.784c-.234.281-.462.575-.678.884l-1.302 1.869 1.896-1.264c.028-.02 1.235-.814 3.21-1.78a86.38 86.38 0 018.134-.226zM35.029 29.075c-.01-.037-.217-.659-1.133-.55.106-.23.153-.54.119-.966-.121-1.544-1.019-2.771-2.003-2.736-.984.035-1.615 1.314-1.561 2.862.054 1.546.881 1.535 1.865 1.501 1.323-.025 2.05-.431 2.713-.111zm4.858-4.446l-.687 4.804-2.417 1.692-7.601-.864-1.418-4.67a.323.323 0 00-.217-.214 11.711 11.711 0 00-1.986-.369l.182-.012c.158-.011 2.779-.333 5.91-1.412 3.467.266 6.298.693 8.234 1.045z" fill="#F4F4F4"></path></g><path d="M9.595 32.569c.046.161.094.323.143.482-.491.144-1.49.282-1.941.203-.375-.377-1.073-2.974-1.226-4.353-.125-1.117-.037-1.359.076-1.453.132-.111.626-.392 1.053-.621l.578 4.69c.011.09.059.17.134.222l1.183.83zM28.037 32.634l-.035.299s-1.051.974-2.742 1.192c-1.691.218-3.021-.822-3.021-.822.056.181.134.589.517.937-.451-.054-.937-.09-1.448-.09-.184 0-.371.005-.551.014-1.041.054-2.505 1.628-3.535 3.214-.505.16-2.085.661-3.913 1.201-1.706-2.364-2.545-4.78-2.63-5.03l.001-.001c-.034-.096-.069-.192-.101-.291l.439.307v.001l1.084.759.362.253a.317.317 0 00.252.051l9.962-2.218a.317.317 0 00.235-.218l1.421-4.676c.245-.033.461-.05.645-.05s.4.017.646.05l1.462 4.816a.317.317 0 00.269.224l.681.078z" fill="#F4F4F4"></path><path d="M39.407 32.376l.322-.226c-.053.223-.111.445-.171.664a22.978 22.978 0 01-1.561 3.82c-.13.009-.266.014-.413.014-.452 0-.914-.038-1.425-.085-.887-.081-2.295-.243-2.74-.294a742.64 742.64 0 00-2.784-2.205l-.116-.096c-.192-.162-.41-.347-.852-.347-.402 0-.988.146-2.406.575.737-.551.741-1.261.741-1.261l.035-.299 9.345 1.062a.323.323 0 00.219-.055l.939-.658.867-.609z" fill="#F4F4F4"></path><path d="M32.53 12.714c.028.831.008 2.338-.38 3.749a.303.303 0 000 .161 61.455 61.455 0 00-1.478-.136c.553-1.159.674-2.393.7-2.828.424-.302.847-.664 1.158-.946zM18.429 13.66c.026.435.146 1.667.699 2.825-.493.039-.985.085-1.477.137a.306.306 0 000-.159c-.387-1.408-.406-2.916-.379-3.749.31.282.731.644 1.157.946z" fill="#BCBCBC"></path><path d="M35.029 29.075c-.663-.32-1.39.086-2.713.111-.984.035-1.811.045-1.865-1.501-.054-1.547.576-2.827 1.561-2.862.984-.034 1.882 1.193 2.003 2.736.033.425-.014.736-.119.966.916-.109 1.123.513 1.133.55zm-3.093-2.265a.502.502 0 10-.513-.495c.005.278.234.5.513.495z" fill="#464646"></path><circle transform="rotate(-1.049 31.929 26.303)" cx="31.925" cy="26.303" fill="#EEF7FA" r=".503"></circle><path d="M19.353 27.992c.014 1.547-.805 1.454-1.79 1.463-.1.003-.194.004-.289.005a5.679 5.679 0 01-.319.001c-.956-.001-1.567-.044-2.108.247.013-.033.25-.564 1.109-.78-.095-.21-.154-.5-.17-.903-.059-1.546.894-2.814 1.88-2.822.985-.009 1.672 1.242 1.687 2.789zm-1.521-.809a.503.503 0 10-.027-1.005.503.503 0 00.027 1.005z" fill="#464646"></path><circle transform="rotate(-1.473 17.817 26.68)" cx="17.819" cy="26.681" fill="#EEF7FA" r=".503"></circle><g fill="#BCBCBC"><path d="M11.832 17.488s.153-1.993.466-2.757c.161-.394 1.146-.644 1.898-.824.752-.179 1.951-.537 2.184.519.233 1.056.608 1.826.859 2.166l-.322-4.351-5.175 1.253-.34 3.85.161.304.269-.16M38.015 17.488s-.153-1.993-.465-2.757c-.161-.394-1.146-.644-1.898-.824-.752-.179-1.952-.537-2.185.519-.232 1.056-.609 1.826-.86 2.166l.323-4.351 5.175 1.253.34 3.85-.161.304-.269-.16" fill="#BCBCBC"></path></g><path d="M30.701 4.467S30.564 14.9 28.127 14.9h-3.411-2.925c-2.437 0-2.634-10.429-2.634-10.429L17.96 8.012l.019 4.858.85.676.386 2.086.541 1.217 10.431.019.483-.869.406-1.468.058-.927 1.152-3.289-1.585-5.848zM38.376 14.195s.502 3.599 1.829 4.248l-1.858-.561.029-3.687zM11.423 14.195s-.502 3.599-1.829 4.248l1.859-.561-.03-3.687z" fill="#BCBCBC"></path><path d="M38.733 17.866c.632.207 1.267.426 1.843.763a7.312 7.312 0 00-.946-.288c-.319-.081-.641-.15-.963-.212a29.886 29.886 0 00-1.949-.304 44.278 44.278 0 00-1.96-.212c-.655-.055-1.309-.111-1.966-.149-2.625-.161-5.258-.202-7.892-.205-2.634.001-5.266.051-7.892.206-.656.038-1.311.094-1.966.149a41.32 41.32 0 00-1.96.212c-.653.079-1.302.183-1.949.304-.323.061-.644.131-.965.211a7.36 7.36 0 00-.946.288c.575-.336 1.211-.557 1.844-.764l.161-.049-.01-.041c-.011-.073-.245-1.802.163-4.276a.31.31 0 01.221-.247l.669-.191c.145-5.189 2.282-7.629 2.349-7.705-1.91 3.073-1.892 6.717-1.859 7.565l4.158-1.182.01-.002a.31.31 0 01.052-.007l.017-.001a.269.269 0 01.068.006l.012.004c.017.004.033.01.051.017.008.004.012.008.02.011l.041.026c.004.003.008.004.011.008l.007.007.012.01c.003.004.113.113.289.277-.042-1.37.023-5.3 1.895-8.557-.039.114-1.524 4.456-1.013 9.322.166.133.341.264.511.378a.31.31 0 01.134.25c.001.016.037 1.567.722 2.887a.38.38 0 01.023.061 76.012 76.012 0 015.117-.164c1.705.001 3.413.05 5.116.168a.323.323 0 01.025-.065c.685-1.319.721-2.87.721-2.887a.312.312 0 01.136-.25c.17-.115.342-.245.51-.378.512-4.866-.972-9.208-1.012-9.322 1.87 3.257 1.937 7.187 1.895 8.557.175-.164.286-.273.289-.277.004-.004.009-.006.012-.01.003-.002.004-.005.008-.007l.011-.008.041-.027c.006-.002.012-.006.019-.01a.31.31 0 01.054-.018c.004 0 .008-.003.011-.003a.261.261 0 01.068-.006l.016.001a.48.48 0 01.053.007l.01.002 4.158 1.182c.033-.849.051-4.493-1.859-7.565.066.075 2.204 2.516 2.348 7.705l.67.191a.31.31 0 01.221.247c.408 2.474.172 4.203.162 4.276-.002.015-.006.028-.01.042a2.8 2.8 0 01.163.049zm-.756-.222c.032-.277.181-1.791-.136-3.853l-4.706-1.338c.042.797.061 2.526-.391 4.174a.36.36 0 01-.023.059c.047.005.094.008.139.015a39.25 39.25 0 013.942.649c.393.091.786.188 1.175.294zm-5.827-1.182c.387-1.41.408-2.917.38-3.749-.31.282-.733.644-1.158.946-.026.435-.147 1.669-.7 2.828.493.04.986.084 1.478.136a.303.303 0 010-.161zm-13.022.023c-.552-1.158-.673-2.39-.699-2.825a12.85 12.85 0 01-1.158-.946c-.027.833-.007 2.341.379 3.749a.306.306 0 010 .159c.492-.052.985-.098 1.478-.137zm-2.049.198a.321.321 0 01-.022-.057c-.453-1.648-.433-3.377-.393-4.174l-4.705 1.338c-.316 2.06-.169 3.574-.137 3.852.391-.106.782-.203 1.177-.294a39.67 39.67 0 011.962-.376c.658-.11 1.318-.193 1.978-.273l.14-.016z" fill="#464646"></path><path fill="#464646" d="M29.86 4.603v3.904h-2.768v-1.14h-.624v5.27h.942v2.947h-4.841v-2.947h.938v-5.27h-.621v1.14H20.12V4.603z"></path><g fill="#696A6A"><path d="M11.049 20.107s-7.137 5.023-7.416 6.937l.536-.11s8.546-5.665 15.321-6.355l.153-.86-8.594.388zM22.252 19.389l-5.622 3.987.304.244c.229-.185 9.985-3.165 9.985-3.165l2.057-1.29c-1.379.173-6.724.224-6.724.224zM27.138 24.212c3.992 0 9.975-3.909 9.975-3.909l-1.934-.368c-.096.096-3.119-.106-3.119-.106l-1.435-.399-3.429 3.907-.279.678c.246-.101.221.197.221.197z" fill="#696A6A"></path></g><path d="M40.164 36.679l-1.233.347-5.698-.123-3.564-2.772-4.308 1.078-4.983-.431-2.79 3.049-5.236 1.564-2.614-.811-.132-.113 1.173 2.873s2.658 2.849 4.142 3.184c1.484.335 4.166-.024 6.177-.336 2.011-.311 3.615-1.03 4.262-2.202.646-1.174.742-1.509.742-1.509s1.916 2.706 3.568 3.017c1.652.311 6.56-1.365 6.56-1.365s2.993-.814 3.52-1.843c.527-1.03 1.916-4.406 1.916-4.406l-1.502.799zM10.287 39.02l-.083-.038-.462-.398.545.436zm15.473.534l-.036-.033a8.756 8.756 0 01.134-.144l.004.004c.07.05.14.103.211.156l-.037.05.023.027-.218-.165-.081.105z" fill="#696A6A"></path><path d="M7.246 21.608c.403-.092.949-.208 1.617-.337-.411.28-.897.632-1.427 1.054l-.19-.717z" fill="#939393"></path><path d="M22.019 32.31s.113.726-.903 1.036c-1.016.311-7.45 2.228-8.184 2.124-.734-.103-2.596-1.347-2.596-1.347l-.452-1.606 2.756 1.718 9.379-1.925zM27.783 32.169s-.081.73.947.997c1.028.266 7.54 1.902 8.268 1.767.728-.136 2.535-1.459 2.535-1.459l.381-1.625-2.533 1.511-9.598-1.191z" fill="#C3C3C3"></path><path d="M6.722 30.974s.891 1.783 2.332 1.166l1.029.377-.103.755-2.16.274-.583-.343-.515-2.229z" fill="#C3C3C3"></path><path d="M40.235 31.837c-.05.175-.101.753-.155.925.531.156 1.831.121 2.32.035.405-.408 1.161-3.218 1.327-4.711.135-1.209-.178-1.689-.301-1.791-.143-.12-.677-.424-1.14-.672l-.745 4.956a.342.342 0 01-.145.24l-1.161 1.018z" fill="#F4F4F4"></path><path d="M43.344 30.111s-.965 1.93-2.523 1.262l-1.113.408.111.817 2.338.297.631-.371.556-2.413zM20.682 44.494s5.282 2.663 11.262-.961l-1.921-.131s-4.191 1.659-7.508.742l-1.833.35z" fill="#C3C3C3"></path><path fill="#696A6A" d="M29.027 7.678V5.432h-8.078v2.246h1.104V6.537h2.285v6.932h-.94v1.286h3.18v-1.286h-.941V6.537h2.286v1.141z"></path><g fill="#464646"><path d="M26.037 39.587l.366.436c.008.011.82.977 1.813 1.961.66.654 1.458.986 2.372.986.312 0 .64-.04.971-.12.307-.075.641-.154.983-.236 1.235-.295 2.633-.63 3.311-.82.134-.038.284-.072.441-.108.902-.208 2.14-.496 2.795-1.809.493-.985 1.158-2.265 1.651-3.202-.427.197-.875.411-1.193.578-.49.258-1.133.382-1.963.382-.494 0-.978-.042-1.515-.089a144.985 144.985 0 01-2.905-.315l-.139-.015-.11-.088c-.016-.012-1.606-1.279-2.891-2.289l-.142-.118c-.135-.115-.135-.115-.216-.115-.412 0-1.61.372-4.234 1.185l-.161.051-.158-.06c-.018-.006-1.74-.644-3.803-.644-.169 0-.337.004-.501.013-.207.011-1.366.561-2.85 2.908l-.096.151-.17.055c-.025.008-2.577.833-5.285 1.607l-.176.05-.166-.077c-.018-.007-1.077-.499-2.085-.962.55.812 1.253 1.825 1.871 2.62 1.08 1.391 2.442 2.677 5.053 2.677.328 0 .675-.02 1.033-.061 2.656-.3 3.34-.421 3.708-.486.125-.021.223-.039.349-.055.02-.003 2.195-.284 2.805-1.653.629-1.407.756-1.742.761-1.755l.222-.592-.06-.056.133-.145.001.001.004.004c.07.05.14.103.21.157l-.034.048zM9.495 13.029c-.577.233-1.15.472-1.711.736-.562.257-1.114.532-1.641.839a9.48 9.48 0 00-1.366.935 7.972 7.972 0 00-.048.326c-.018.153-.036.306-.048.461-.027.309-.038.62-.041.931a13.762 13.762 0 00.481 3.684c.083.297.176.59.285.872a5.985 5.985 0 00.27.615l.039.075c.046.024.094.047.139.069l.277.132c.154.071.367.172.543.251.011-.008.02-.018.028-.026l-.512-1.952c.108-.03 1.082-.281 2.759-.601a8.186 8.186 0 01-1.53-.445c-.18-.077-.36-.16-.53-.257a1.804 1.804 0 01-.467-.355c1.843.602 5.65.329 9.036-.02 3.096-.319 6.199-.526 9.318-.533 3.119.007 6.224.214 9.318.533 3.387.349 7.195.622 9.038.02a1.821 1.821 0 01-.466.355 5.4 5.4 0 01-.53.257 8.39 8.39 0 01-1.294.396c1.839.341 2.91.619 3.024.65l-.49 1.859c.099-.044.198-.086.295-.132l.277-.132c.045-.022.093-.045.139-.069l.038-.075a7.448 7.448 0 00.272-.615c.108-.282.202-.576.283-.872.168-.592.282-1.206.366-1.824a13.602 13.602 0 00.075-2.791 11.8 11.8 0 00-.049-.461 6.54 6.54 0 00-.049-.326 9.45 9.45 0 00-1.366-.935 18.352 18.352 0 00-1.642-.839 32.5 32.5 0 00-1.711-.736c-.289-.117-.58-.23-.872-.339-.291-.113-.585-.219-.88-.326.618.102 1.231.243 1.838.399.395.102.79.217 1.179.34C38.792 5.842 32.151 1.114 24.9 1.114c-7.252 0-13.893 4.728-16.67 11.988.39-.122.783-.237 1.178-.34a21.903 21.903 0 011.839-.399 48.4 48.4 0 00-1.752.666zm36.564 4.201a12.8 12.8 0 01-.43 3.977 9.297 9.297 0 01-.526 1.438 4.359 4.359 0 01-.12.235l-.065.117a2.04 2.04 0 01-.08.132l-.067.105-.106.054a8.476 8.476 0 01-.308.15l-.298.134c-.2.085-.4.166-.601.244-.14.055-.264.105-.381.155l-.331 1.258c-.008-.002-.108-.028-.294-.072l-.018.132c.366.191 1.084.578 1.329.78.493.407.527 1.052.418 2.257-.056.619-.261 1.822-.546 2.928-.492 1.903-.753 2.127-1.09 2.213a2.954 2.954 0 01-.69.088c-.52 0-1.228.014-1.704-.101a18.216 18.216 0 01-1.162 2.973c.035-.017.069-.031.1-.047.852-.448 2.491-1.161 2.56-1.192l1.294-.562-.663 1.246c-.015.027-1.437 2.7-2.307 4.445-.864 1.729-2.485 2.105-3.455 2.328-.146.035-.285.067-.397.097-.696.196-2.105.532-3.348.831-.015.004-.03.008-.045.01-.765.473-1.599.894-2.512 1.241-3.341 1.266-6.863 1.194-10.055.021-.519.067-1.2.148-2.108.252-.394.044-.778.067-1.143.067-3.042 0-4.654-1.545-5.831-3.057-1.26-1.62-2.801-4.024-2.866-4.125l-.894-1.394 1.51.679c.723.325 2.872 1.32 3.487 1.605a5.14 5.14 0 00.147-.043 18.506 18.506 0 01-2.453-4.962 7.343 7.343 0 01-1.882.269 2.65 2.65 0 01-.57-.052c-.337-.077-.722-.402-1.246-2.246-.304-1.071-.531-2.239-.597-2.841-.131-1.174-.107-1.804.381-2.21.294-.246 1.287-.767 1.492-.874l-.045-.363C4.39 27.404 2.5 29.041 2.461 29.075L.206 31.054l1.607-2.534a24.638 24.638 0 014.092-4.881l-.163-.067-.298-.134a8.463 8.463 0 01-.307-.15l-.106-.054-.068-.105c-.038-.057-.055-.089-.08-.132l-.067-.117a6.502 6.502 0 01-.323-.71 10.26 10.26 0 01-.322-.963 12.547 12.547 0 01-.372-1.974 11.97 11.97 0 01.119-3.5c.034-.168.068-.325.119-.509l.036-.129.093-.073c.526-.413 1.094-.725 1.671-1.002.475-.223.959-.42 1.447-.6 1.363-3.783 3.707-7.137 6.787-9.475C17.255 1.529 21 .252 24.9.252s7.645 1.277 10.829 3.694c3.08 2.338 5.424 5.692 6.786 9.474.489.18.972.376 1.449.601.577.277 1.144.589 1.67 1.002l.093.073.036.129a7.598 7.598 0 01.201 1.007c.046.33.079.664.095.998zm-2.751 11.015c.105-1.159.013-1.408-.104-1.503-.118-.099-.515-.324-.902-.534l-.637 4.464a.32.32 0 01-.133.216l-.912.638c-.072.365-.098.538-.187.895.521.121 1.376.215 1.783.136.368-.4.965-2.892 1.092-4.312zm-1.183-4.047l.683-2.589c-.99-.224-2.814-.6-5.298-.951-1.268.912-2.656 1.641-4.02 2.223 4.173.405 7.239 1.009 8.635 1.317zm-1.074 6.246l.776-5.43a54.44 54.44 0 00-1.314-.268l-.702 4.913a.323.323 0 01-.132.216l-2.631 1.84a.321.321 0 01-.217.056l-7.929-.901a.319.319 0 01-.27-.223l-1.428-4.702c-.383-.099-1.364-.328-2.224-.328-.863 0-1.844.229-2.226.328l-1.428 4.702a.32.32 0 01-.235.218l-7.929 1.764a.316.316 0 01-.252-.049l-2.63-1.841a.32.32 0 01-.134-.222l-.709-5.75c-.294.057-.56.112-.798.161l-.499.278.752 6.093 3.822 2.678 9.643-2.145 1.424-4.69a.319.319 0 01.254-.224c.361-.058.677-.088.944-.088.264 0 .582.03.941.088a.316.316 0 01.254.224l1.46 4.806 9.697 1.103 3.72-2.607zM39.2 29.433l.686-4.804a81.087 81.087 0 00-8.233-1.044c-3.13 1.08-5.751 1.401-5.909 1.412l-.183.013a11.65 11.65 0 011.986.368c.104.031.184.11.217.214l1.419 4.671 7.6.863 2.417-1.693zm.529 2.716l-.322.225-.867.608-.939.658a.328.328 0 01-.219.056l-9.345-1.063-.68-.077a.318.318 0 01-.269-.224l-1.463-4.816a4.927 4.927 0 00-.644-.05c-.186 0-.402.017-.646.05l-1.42 4.677a.317.317 0 01-.235.217l-9.962 2.218a.315.315 0 01-.253-.051l-.362-.252-1.084-.758v-.003l-.438-.306c.031.099.066.195.101.291l-.001.001c.084.25.924 2.665 2.63 5.029 1.827-.539 3.408-1.04 3.912-1.2 1.029-1.586 2.495-3.16 3.536-3.214.179-.008.366-.014.551-.014.509 0 .996.037 1.447.09-.383-.348-.462-.756-.517-.937 0 0 1.329 1.039 3.02.822 1.692-.219 2.743-1.194 2.743-1.194s-.005.711-.742 1.262c1.418-.429 2.004-.576 2.406-.576.443 0 .661.185.852.348l.116.096c1.09.858 2.401 1.9 2.784 2.205.444.052 1.852.212 2.739.294.512.046.974.085 1.426.085.146 0 .283-.006.412-.014a22.916 22.916 0 001.561-3.819c.061-.218.119-.44.172-.664zm-3.448-11.832l-.007-.003a120.06 120.06 0 00-2.254-.149c-1.045-.06-2.09-.109-3.134-.153-.061.09-.184.268-.361.51-.569.769-1.697 2.181-3.143 3.378 2.047-.367 5.598-1.275 8.67-3.418.077-.055.153-.112.229-.165zm-6.852.212c.086-.108.167-.212.239-.307-.752.076-1.494.185-2.218.323-2.48.464-4.771 1.236-6.676 2.027a88.373 88.373 0 016.867-.064 19.793 19.793 0 001.788-1.979zm.822 23.413a4.275 4.275 0 01-2.73-1.256l-.115-.117a9.98 9.98 0 01-1.119.161c-.16.006-.312.02-.48.02l-.248.003-.095-.003c-1.008 1.5-3.247 1.792-3.35 1.805a4.325 4.325 0 00-.273.043c1.248.342 2.522.49 3.778.406a15.099 15.099 0 004.632-1.062zm-3.99-1.711c.242-.019.486-.05.73-.087-.317-.33-.597-.636-.818-.885-.108.248-.251.575-.44.995h.056c.15.001.315-.016.472-.023zm-.77-18.034c.419-.253.822-.543 1.204-.851a86.38 86.38 0 00-8.134.226c-1.975.965-3.182 1.76-3.21 1.78l-1.896 1.265 1.302-1.869c.215-.31.443-.605.678-.885a76.664 76.664 0 00-5.369.785l.697 5.649 2.397 1.679 7.611-1.692 1.425-4.693a.323.323 0 01.216-.214c.044-.012.805-.229 1.682-.336l1.397-.844zm.876-4.309c-.53-.008-1.06-.013-1.59-.014h-.001c-.777.001-1.557.009-2.337.025l-1.438.681-.02.011c-.216.105-2.104 1.058-3.88 2.757a39.68 39.68 0 016.686-2.779 33.32 33.32 0 012.58-.681zm-10.049 3.014c.746-.74 1.515-1.35 2.194-1.827-2.618.608-5.028 1.501-7.139 2.472a83.385 83.385 0 014.945-.645zm.495-2.281a34.118 34.118 0 012.709-.641c-1.33.049-2.66.11-3.989.185-.772.043-1.54.095-2.308.153a35.98 35.98 0 00-1.473.139c-1.002.6-4.845 3.012-7.484 6.167 2.564-1.782 7.03-4.46 12.545-6.003zM9.738 33.05c-.05-.159-.097-.321-.142-.482l-1.184-.828a.318.318 0 01-.134-.222l-.578-4.69c-.428.229-.921.51-1.053.621-.114.094-.201.335-.077 1.452.153 1.378.851 3.975 1.227 4.353.451.079 1.451-.059 1.941-.204zm-.875-11.779c-.669.129-1.214.246-1.617.337l.19.717c.53-.422 1.016-.774 1.427-1.054zM55.061 19.986h-4.914v-2.548h12.818v2.548h-4.889v14.457H55.06V19.986zM63.449 21.676h2.47l.208 2.263h.104c.91-1.664 2.263-2.574 3.614-2.574.65 0 1.066.078 1.456.26l-.52 2.6c-.442-.13-.78-.208-1.326-.208-1.014 0-2.236.702-3.016 2.626v7.801h-2.99V21.676zM80.054 26.279c-.025-1.353-.598-2.496-2.314-2.496-1.273 0-2.47.572-3.588 1.248l-1.092-2.002c1.404-.885 3.198-1.664 5.227-1.664 3.197 0 4.758 1.949 4.758 5.512v7.566H80.6l-.233-1.404h-.078c-1.145.962-2.444 1.717-3.952 1.717-2.236 0-3.796-1.509-3.796-3.744 0-2.731 2.287-4.161 7.513-4.733zm-2.782 6.135c1.04 0 1.847-.52 2.782-1.403v-2.86c-3.458.441-4.602 1.352-4.602 2.626.001 1.143.755 1.637 1.82 1.637zM84.531 21.676h3.043l2.027 6.63c.338 1.248.729 2.549 1.066 3.849h.104c.364-1.3.729-2.601 1.093-3.849l2.028-6.63h2.886l-4.343 12.767h-3.458l-4.446-12.767zM98.496 17.75c0-1.015.779-1.716 1.846-1.716s1.846.701 1.846 1.716c0 .987-.779 1.689-1.846 1.689s-1.846-.701-1.846-1.689zm.338 3.926h2.99v12.767h-2.99V21.676zM105.545 31.063c1.144.884 2.236 1.43 3.536 1.43 1.378 0 2.028-.649 2.028-1.534 0-1.065-1.379-1.534-2.73-2.054-1.69-.624-3.588-1.586-3.588-3.718 0-2.236 1.794-3.822 4.654-3.822 1.768 0 3.197.728 4.237 1.533l-1.378 1.82c-.884-.649-1.794-1.092-2.808-1.092-1.274 0-1.872.598-1.872 1.404 0 .988 1.273 1.404 2.652 1.897 1.741.65 3.666 1.482 3.666 3.874 0 2.185-1.742 3.953-4.967 3.953-1.742 0-3.588-.755-4.836-1.769l1.406-1.922zM129.126 17.126c2.08 0 3.771 1.014 4.836 2.158l-1.664 1.872c-.884-.858-1.846-1.404-3.146-1.404-2.782 0-4.784 2.34-4.784 6.162 0 3.874 1.846 6.214 4.68 6.214 1.509 0 2.626-.624 3.589-1.689l1.664 1.846c-1.379 1.586-3.146 2.471-5.305 2.471-4.316 0-7.723-3.121-7.723-8.763 0-5.565 3.485-8.867 7.853-8.867zM136.777 17.438h3.017v17.005h-3.017V17.438z" fill="#464646"></path></g></svg>